<svg width="90" height="30" viewBox="0 0 90 30" fill="none" xmlns="http://www.w3.org/2000/svg">
<rect x="0.908203" y="0.00488281" width="88.9474" height="30" rx="5" fill="#31AF47"/>
<path d="M80.7054 13.6025V15.1773H79.0033V18.952H77.2548V15.1773H75.5527V13.6025H80.7054Z" fill="white"/>
<path d="M69.3672 18.952V13.6025H71.1156V16.4973H71.1388L73.4082 13.6025H74.9482V18.952H73.1998V16.0573H73.1767L70.9072 18.952H69.3672Z" fill="white"/>
<path d="M68.0347 17.6668H68.7179V20.4573H67.2589V19.0678H63.6347V20.4573H62.1758V17.6668H62.8589C63.106 17.2576 63.2295 16.7636 63.2295 16.1846V13.6025H68.0347V17.6668ZM64.9431 16.231C64.9431 16.7636 64.8389 17.2422 64.6305 17.6668H66.3095V15.1194H64.9431V16.231Z" fill="white"/>
<path d="M59.4425 13.4414C60.2684 13.4414 60.9168 13.6846 61.3877 14.1709C61.8586 14.6495 62.094 15.3597 62.094 16.3014V16.6951H58.2614C58.3695 17.3435 58.8249 17.6677 59.6277 17.6677C60.1681 17.6677 60.6853 17.5056 61.1793 17.1814L61.8161 18.5014C61.1368 18.9182 60.3996 19.1267 59.6046 19.1267C58.7091 19.1267 57.9874 18.8681 57.4393 18.3509C56.8912 17.8337 56.6172 17.1505 56.6172 16.3014C56.6172 15.4137 56.8758 14.7151 57.393 14.2056C57.9179 13.6961 58.601 13.4414 59.4425 13.4414ZM59.3846 14.6804C58.7207 14.6804 58.3502 15.0084 58.273 15.6646H60.4035C60.3958 15.3558 60.2954 15.1165 60.1024 14.9467C59.9172 14.7691 59.6779 14.6804 59.3846 14.6804Z" fill="white"/>
<path d="M50.0762 21.2686V13.6034H51.8246V14.3328H51.8478C52.2183 13.7307 52.8011 13.4297 53.5962 13.4297C54.3295 13.4297 54.9355 13.6806 55.4141 14.1823C55.8927 14.6764 56.132 15.375 56.132 16.2781C56.132 17.1813 55.8927 17.8837 55.4141 18.3855C54.9355 18.8795 54.3295 19.1265 53.5962 19.1265C52.8011 19.1265 52.2183 18.8255 51.8478 18.2234H51.8246V21.2686H50.0762ZM53.1099 17.5286C53.4649 17.5286 53.7583 17.4167 53.9899 17.1928C54.2214 16.9613 54.3372 16.6564 54.3372 16.2781C54.3372 15.8999 54.2214 15.5988 53.9899 15.375C53.7583 15.1434 53.4649 15.0276 53.1099 15.0276C52.747 15.0276 52.4499 15.1434 52.2183 15.375C51.9867 15.5988 51.8709 15.8999 51.8709 16.2781C51.8709 16.6564 51.9867 16.9613 52.2183 17.1928C52.4499 17.4167 52.747 17.5286 53.1099 17.5286Z" fill="white"/>
<path d="M49.66 18.952H47.4021L45.5726 16.4973V18.952H43.8242V13.6025H45.5726V15.7099L47.1474 13.6025H49.3011L47.1821 16.0341L49.66 18.952Z" fill="white"/>
<path d="M38.2924 14.6798C39.3963 14.8651 39.9482 15.5289 39.9482 16.6714C39.9482 17.451 39.6896 18.0261 39.1724 18.3966C38.6552 18.7672 37.9952 18.9524 37.1924 18.9524H33.7188V10.8472H37.0766C37.8331 10.8472 38.4391 11.017 38.8945 11.3566C39.35 11.6886 39.5777 12.1903 39.5777 12.8619C39.5777 13.7805 39.1493 14.3787 38.2924 14.6566V14.6798ZM36.8682 12.4798H35.5135V14.0661H36.8566C37.1345 14.0661 37.3545 13.9966 37.5166 13.8577C37.6865 13.711 37.7714 13.5103 37.7714 13.2556C37.7714 13.0163 37.6865 12.8272 37.5166 12.6882C37.3545 12.5493 37.1384 12.4798 36.8682 12.4798ZM36.9261 17.3198C37.2812 17.3198 37.563 17.2465 37.7714 17.0998C37.9798 16.9454 38.084 16.7254 38.084 16.4398C38.084 15.8531 37.6942 15.5598 36.9145 15.5598H35.5135V17.3198H36.9261Z" fill="white"/>
<path d="M24.7355 10.0029C25.1145 10.4971 25.4303 11.0392 25.6988 11.6132L18.4032 17.0497L15.3398 15.1046V12.777L18.3876 14.7061L24.7355 10.0029Z" fill="white"/>
<path d="M12.2284 14.9423C12.2284 14.8307 12.2284 14.7351 12.2442 14.6235L10.3967 14.5278C10.3967 14.6554 10.3809 14.7989 10.3809 14.9264C10.3809 17.1584 11.281 19.183 12.7337 20.65L14.0444 19.3267C12.9232 18.2107 12.2284 16.6642 12.2284 14.9423Z" fill="white"/>
<path d="M18.3877 8.7247C18.4982 8.7247 18.593 8.7247 18.7035 8.74064L18.7983 6.87532C18.6719 6.87532 18.5298 6.85938 18.4035 6.85938C16.1927 6.85938 14.1874 7.76812 12.7344 9.23486L14.045 10.5581C15.1504 9.42616 16.698 8.7247 18.3877 8.7247Z" fill="white"/>
<path d="M18.3871 21.163C18.2766 21.163 18.1819 21.163 18.0713 21.1471L17.9766 23.0124C18.1029 23.0124 18.245 23.0284 18.3714 23.0284C20.5821 23.0284 22.5875 22.1196 24.0404 20.6529L22.7298 19.3296C21.6244 20.4775 20.0926 21.163 18.3871 21.163Z" fill="white"/>
<path d="M21.8608 9.81158L23.4241 8.64774C22.0503 7.53176 20.2976 6.84619 18.3867 6.84619V8.71152C19.6816 8.72746 20.8817 9.12605 21.8608 9.81158Z" fill="white"/>
<path d="M26.4081 14.943C26.4081 14.4488 26.3607 13.9705 26.2817 13.4922L24.5605 14.7836V14.943C24.5605 16.7764 23.7709 18.4185 22.5234 19.5506L23.7709 20.9376C25.3816 19.4709 26.4081 17.3187 26.4081 14.943Z" fill="white"/>
<path d="M18.3867 21.1621C16.5707 21.1621 14.9443 20.365 13.823 19.1055L12.4492 20.365C13.9178 22.0071 16.0337 23.0274 18.3868 23.0274L18.3867 21.1621Z" fill="white"/>
<path d="M14.2655 10.3368L13.018 8.94971C11.3915 10.4324 10.3809 12.5686 10.3809 14.9441H12.2284C12.2284 13.1266 13.018 11.4688 14.2655 10.3368Z" fill="white"/>
</svg>
