<svg width="214" height="48" viewBox="0 0 214 48" fill="none" xmlns="http://www.w3.org/2000/svg">
<path d="M27.9392 48.005V30.8289C18.6271 25.6916 9.3121 20.5543 0 15.417C9.3121 26.2806 18.6271 37.1414 27.9392 48.005Z" fill="white"/>
<path d="M26.1541 43.5715V31.4379C19.5744 27.809 12.9976 24.1801 6.41797 20.5513C12.9976 28.2256 19.5744 35.8971 26.1541 43.5715Z" fill="url(#paint0_linear_101_3646)"/>
<path d="M55.878 15.417L36.8516 39.9284L51.5768 16.3106L55.878 15.417Z" fill="white"/>
<path d="M7.39062 10.7105C14.2404 8.08437 21.0901 5.45537 27.9399 2.82925V0.00488281C21.0901 3.57342 14.2404 7.14195 7.39062 10.7134V10.7105Z" fill="#CE2E41"/>
<path d="M55.8786 15.4168C46.5665 20.557 37.2516 25.6943 27.9395 30.8316V0.00488281C37.2516 5.1422 46.5665 10.2824 55.8786 15.4197V15.4168Z" fill="#CE2E41"/>
<path opacity="0.59" d="M49.1374 16.5344C42.6899 20.0915 36.2424 23.6485 29.7949 27.2056V5.86328C36.2424 9.42033 42.6899 12.9774 49.1374 16.5344Z" fill="url(#paint1_linear_101_3646)"/>
<path d="M68.4866 1.3556C69.3445 0.547893 70.4901 0.144043 71.9207 0.144043H80.911V3.89749H72.1345C71.7491 3.89749 71.4218 3.97931 71.1579 4.14296C70.8939 4.30661 70.7619 4.61809 70.7619 5.07737V15.3558H67.2012V4.9058C67.2012 3.34582 67.6314 2.1633 68.4893 1.3556H68.4866Z" fill="#CE2E41"/>
<path d="M83.8073 0.122559H87.3681V5.87413H92.0243C92.3964 5.87413 92.7105 5.80287 92.9692 5.66033C93.2252 5.5178 93.4047 5.25384 93.505 4.86582L94.772 0.125193H98.3539L97.0658 4.91071C96.852 5.71313 96.4983 6.38357 96.0047 6.92731C95.5111 7.47106 94.7483 7.85644 93.7188 8.08608L93.7611 7.2071C94.5899 7.36548 95.226 7.58193 95.6695 7.86172C96.1129 8.14152 96.4349 8.47938 96.6355 8.88059C96.8362 9.2818 97.0368 9.85458 97.2374 10.5963L98.5255 15.358H94.7483C94.6057 14.8301 94.5028 14.4316 94.4368 14.1676C94.3735 13.9036 94.2679 13.513 94.1253 12.9983L93.4813 10.6385C93.3519 10.2373 93.1487 9.97072 92.8689 9.83346C92.5891 9.69884 92.2645 9.63023 91.8923 9.63023H87.3654V15.358H83.8047V0.125193L83.8073 0.122559Z" fill="#CE2E41"/>
<path d="M109.682 0.122559H125.131V15.3554H121.57V3.87599H113.245V15.3554H109.684V0.122559H109.682Z" fill="white"/>
<path d="M129.851 14.1441C128.993 13.3364 128.562 12.1513 128.562 10.5939V4.88724C128.562 3.32727 128.993 2.14474 129.851 1.33704C130.708 0.529339 131.854 0.125488 133.285 0.125488H139.657C140.586 0.125488 141.404 0.299704 142.114 0.650764C142.821 1.00182 143.376 1.53501 143.777 2.25033C144.178 2.96565 144.379 3.84462 144.379 4.88988V10.5966C144.379 12.1566 143.948 13.3391 143.091 14.1468C142.233 14.9545 141.087 15.3583 139.657 15.3583H133.285C131.854 15.3583 130.711 14.9545 129.851 14.1468V14.1441ZM140.417 11.3541C140.681 11.1905 140.813 10.879 140.813 10.4197V5.05618C140.813 4.59953 140.681 4.28806 140.417 4.12176C140.153 3.95811 139.825 3.87629 139.44 3.87629H133.496C133.11 3.87629 132.783 3.95811 132.519 4.12176C132.255 4.28542 132.123 4.59689 132.123 5.05618V10.4197C132.123 10.8764 132.255 11.1878 132.519 11.3541C132.783 11.5178 133.11 11.6023 133.496 11.6023H139.44C139.825 11.6023 140.15 11.5204 140.417 11.3541Z" fill="white"/>
<path d="M147.185 11.5995C147.486 11.5995 147.747 11.5784 147.969 11.5362C148.191 11.4939 148.384 11.3857 148.547 11.2142C148.711 11.0426 148.793 10.7786 148.793 10.4197V0.120117H164.155V15.353H160.594V3.87355H152.269V10.5886C152.269 11.8476 152.058 12.8269 151.635 13.529C151.213 14.2312 150.635 14.7089 149.899 14.9676C149.162 15.2263 148.249 15.353 147.164 15.353V11.5995H147.185Z" fill="white"/>
<path d="M167.592 0.122559H171.153V5.87413H176.453V9.62758H171.153V15.3554H167.592V0.122559ZM176.603 14.1439C175.745 13.3362 175.315 12.151 175.315 10.5937V4.88695C175.315 3.32697 175.745 2.14445 176.603 1.33675C177.461 0.529043 178.607 0.125193 180.037 0.125193H186.409C187.338 0.125193 188.157 0.299409 188.867 0.650469C189.574 1.00153 190.128 1.53472 190.53 2.25004C190.931 2.96535 191.131 3.84433 191.131 4.88959V10.5963C191.131 12.1563 190.701 13.3388 189.843 14.1465C188.985 14.9542 187.84 15.358 186.409 15.358H180.037C178.607 15.358 177.464 14.9542 176.603 14.1465V14.1439ZM187.169 11.3538C187.433 11.1902 187.565 10.8787 187.565 10.4194V5.05588C187.565 4.59924 187.433 4.28776 187.169 4.12147C186.905 3.95782 186.578 3.87599 186.193 3.87599H180.248C179.863 3.87599 179.536 3.95782 179.272 4.12147C179.008 4.28512 178.876 4.5966 178.876 5.05588V10.4194C178.876 10.8761 179.008 11.1876 179.272 11.3538C179.536 11.5175 179.863 11.602 180.248 11.602H186.193C186.578 11.602 186.903 11.5201 187.169 11.3538Z" fill="white"/>
<path d="M196.823 14.8301C196.116 14.4791 195.562 13.9459 195.16 13.2306C194.759 12.5152 194.559 11.6363 194.559 10.591V4.8843C194.559 3.32433 194.989 2.14181 195.847 1.33411C196.705 0.526409 197.85 0.122559 199.281 0.122559H209V3.87863H199.495C199.109 3.87863 198.782 3.96046 198.518 4.12411C198.254 4.28776 198.122 4.59924 198.122 5.05852V10.4221C198.122 10.8787 198.254 11.1902 198.518 11.3565C198.782 11.5201 199.109 11.6046 199.495 11.6046H209V15.358H199.281C198.352 15.358 197.533 15.1838 196.823 14.8328V14.8301Z" fill="white"/>
<path d="M71.3889 32.0542C70.1642 32.0542 69.1706 31.6838 68.4079 30.9432C67.6452 30.2025 67.2639 29.2345 67.2639 28.0392C67.2639 26.8438 67.6452 25.8758 68.4079 25.1352C69.1706 24.3945 70.1642 24.0242 71.3889 24.0242C72.4156 24.0242 73.3212 24.3065 74.1059 24.8712L73.4019 25.8722C72.7786 25.4175 72.0929 25.1902 71.3449 25.1902C70.5236 25.1902 69.8452 25.4505 69.3099 25.9712C68.7819 26.4918 68.5179 27.1812 68.5179 28.0392C68.5179 28.8972 68.7819 29.5865 69.3099 30.1072C69.8452 30.6278 70.5236 30.8882 71.3449 30.8882C72.0929 30.8882 72.7786 30.6608 73.4019 30.2062L74.1059 31.2072C73.3212 31.7718 72.4156 32.0542 71.3889 32.0542ZM78.3857 26.8072V27.7972H76.6147V31.8892H75.5367V27.7972H73.7767V26.8072H78.3857ZM79.0975 34.0892V26.8072H80.1755V27.5552H80.1975C80.5495 26.9465 81.1215 26.6422 81.9135 26.6422C82.6102 26.6422 83.1968 26.8878 83.6735 27.3792C84.1502 27.8705 84.3885 28.5268 84.3885 29.3482C84.3885 30.1695 84.1502 30.8258 83.6735 31.3172C83.1968 31.8085 82.6102 32.0542 81.9135 32.0542C81.1215 32.0542 80.5495 31.7498 80.1975 31.1412H80.1755V34.0892H79.0975ZM80.5495 30.5472C80.8355 30.8478 81.2132 30.9982 81.6825 30.9982C82.1518 30.9982 82.5295 30.8478 82.8155 30.5472C83.1015 30.2392 83.2445 29.8395 83.2445 29.3482C83.2445 28.8568 83.1015 28.4608 82.8155 28.1602C82.5295 27.8522 82.1518 27.6982 81.6825 27.6982C81.2132 27.6982 80.8355 27.8522 80.5495 28.1602C80.2635 28.4608 80.1205 28.8568 80.1205 29.3482C80.1205 29.8395 80.2635 30.2392 80.5495 30.5472ZM85.8437 27.4122C86.3717 26.8988 87.0353 26.6422 87.8347 26.6422C88.634 26.6422 89.2977 26.8988 89.8257 27.4122C90.3537 27.9255 90.6177 28.5708 90.6177 29.3482C90.6177 30.1255 90.3537 30.7708 89.8257 31.2842C89.2977 31.7975 88.634 32.0542 87.8347 32.0542C87.0353 32.0542 86.3717 31.7975 85.8437 31.2842C85.3157 30.7708 85.0517 30.1255 85.0517 29.3482C85.0517 28.5708 85.3157 27.9255 85.8437 27.4122ZM89.0117 28.1492C88.711 27.8485 88.3187 27.6982 87.8347 27.6982C87.3507 27.6982 86.9547 27.8485 86.6467 28.1492C86.346 28.4498 86.1957 28.8495 86.1957 29.3482C86.1957 29.8468 86.346 30.2465 86.6467 30.5472C86.9547 30.8478 87.3507 30.9982 87.8347 30.9982C88.3187 30.9982 88.711 30.8478 89.0117 30.5472C89.3197 30.2465 89.4737 29.8468 89.4737 29.3482C89.4737 28.8495 89.3197 28.4498 89.0117 28.1492ZM95.4181 24.8492C95.4181 25.3258 95.2788 25.7035 95.0001 25.9822C94.7288 26.2535 94.3695 26.3892 93.9221 26.3892C93.4748 26.3892 93.1118 26.2535 92.8331 25.9822C92.5618 25.7035 92.4261 25.3258 92.4261 24.8492H93.1741C93.1888 25.0985 93.2621 25.2965 93.3941 25.4432C93.5261 25.5825 93.7021 25.6522 93.9221 25.6522C94.1421 25.6522 94.3181 25.5825 94.4501 25.4432C94.5821 25.2965 94.6555 25.0985 94.6701 24.8492H95.4181ZM91.6121 31.8892V26.8072H92.6901V30.1842H92.7121L95.2311 26.8072H96.2321V31.8892H95.1541V28.5122H95.1321L92.6131 31.8892H91.6121ZM97.0576 31.8892L98.4546 26.8072H99.4336L100.534 29.5132H100.556L101.667 26.8072H102.646L104.043 31.8892H102.954L102.074 28.4022H102.052L100.93 31.0862H100.171L99.0486 28.4022H99.0266L98.1466 31.8892H97.0576ZM106.798 32.0542C106.101 32.0542 105.515 31.8085 105.038 31.3172C104.561 30.8258 104.323 30.1695 104.323 29.3482C104.323 28.5268 104.561 27.8705 105.038 27.3792C105.515 26.8878 106.101 26.6422 106.798 26.6422C107.59 26.6422 108.162 26.9465 108.514 27.5552H108.536V26.8072H109.614V31.8892H108.536V31.1412H108.514C108.162 31.7498 107.59 32.0542 106.798 32.0542ZM105.896 30.5472C106.182 30.8478 106.56 30.9982 107.029 30.9982C107.498 30.9982 107.876 30.8478 108.162 30.5472C108.448 30.2392 108.591 29.8395 108.591 29.3482C108.591 28.8568 108.448 28.4608 108.162 28.1602C107.876 27.8522 107.498 27.6982 107.029 27.6982C106.56 27.6982 106.182 27.8522 105.896 28.1602C105.61 28.4608 105.467 28.8568 105.467 29.3482C105.467 29.8395 105.61 30.2392 105.896 30.5472ZM114.941 26.8072V27.7972H113.17V31.8892H112.092V27.7972H110.332V26.8072H114.941ZM117.586 26.6422C118.349 26.6422 118.943 26.8878 119.368 27.3792C119.801 27.8632 120.017 28.5195 120.017 29.3482V29.5242H116.079C116.101 29.9715 116.251 30.3345 116.53 30.6132C116.816 30.8845 117.179 31.0202 117.619 31.0202C118.22 31.0202 118.741 30.7232 119.181 30.1292L119.94 30.8442C119.353 31.6508 118.587 32.0542 117.641 32.0542C116.834 32.0542 116.189 31.8085 115.705 31.3172C115.228 30.8185 114.99 30.1658 114.99 29.3592C114.99 28.5672 115.221 27.9182 115.683 27.4122C116.152 26.8988 116.787 26.6422 117.586 26.6422ZM117.52 27.6322C117.146 27.6322 116.838 27.7275 116.596 27.9182C116.354 28.1088 116.2 28.3838 116.134 28.7432H118.851C118.829 28.3912 118.697 28.1198 118.455 27.9292C118.22 27.7312 117.909 27.6322 117.52 27.6322ZM121.003 34.0892V26.8072H122.081V27.5552H122.103C122.455 26.9465 123.027 26.6422 123.819 26.6422C124.515 26.6422 125.102 26.8878 125.579 27.3792C126.055 27.8705 126.294 28.5268 126.294 29.3482C126.294 30.1695 126.055 30.8258 125.579 31.3172C125.102 31.8085 124.515 32.0542 123.819 32.0542C123.027 32.0542 122.455 31.7498 122.103 31.1412H122.081V34.0892H121.003ZM122.455 30.5472C122.741 30.8478 123.118 30.9982 123.588 30.9982C124.057 30.9982 124.435 30.8478 124.721 30.5472C125.007 30.2392 125.15 29.8395 125.15 29.3482C125.15 28.8568 125.007 28.4608 124.721 28.1602C124.435 27.8522 124.057 27.6982 123.588 27.6982C123.118 27.6982 122.741 27.8522 122.455 28.1602C122.169 28.4608 122.026 28.8568 122.026 29.3482C122.026 29.8395 122.169 30.2392 122.455 30.5472ZM127.287 31.8892V26.8072H128.365V30.1842H128.387L130.906 26.8072H131.907V31.8892H130.829V28.5122H130.807L128.288 31.8892H127.287ZM135.372 32.0542C134.676 32.0542 134.089 31.8085 133.612 31.3172C133.136 30.8258 132.897 30.1695 132.897 29.3482C132.897 28.5268 133.136 27.8705 133.612 27.3792C134.089 26.8878 134.676 26.6422 135.372 26.6422C136.164 26.6422 136.736 26.9465 137.088 27.5552H137.11V26.8072H138.188V31.8892H137.11V31.1412H137.088C136.736 31.7498 136.164 32.0542 135.372 32.0542ZM134.47 30.5472C134.756 30.8478 135.134 30.9982 135.603 30.9982C136.073 30.9982 136.45 30.8478 136.736 30.5472C137.022 30.2392 137.165 29.8395 137.165 29.3482C137.165 28.8568 137.022 28.4608 136.736 28.1602C136.45 27.8522 136.073 27.6982 135.603 27.6982C135.134 27.6982 134.756 27.8522 134.47 28.1602C134.184 28.4608 134.041 28.8568 134.041 29.3482C134.041 29.8395 134.184 30.2392 134.47 30.5472ZM144.011 26.8072V31.8892H142.933V27.8192H140.843V30.4922C140.843 30.9762 140.722 31.3428 140.48 31.5922C140.238 31.8415 139.908 31.9662 139.49 31.9662H138.962V30.9872H139.314C139.614 30.9872 139.765 30.8185 139.765 30.4812V26.8072H144.011ZM147.732 28.6332C148.296 28.6332 148.74 28.7798 149.063 29.0732C149.393 29.3665 149.558 29.7588 149.558 30.2502C149.558 30.7195 149.393 31.1118 149.063 31.4272C148.733 31.7352 148.285 31.8892 147.721 31.8892H145.334V26.8072H146.412V28.6332H147.732ZM150.053 26.8072H151.131V31.8892H150.053V26.8072ZM147.622 30.9322C148.15 30.9322 148.414 30.7122 148.414 30.2722C148.414 29.8175 148.15 29.5902 147.622 29.5902H146.412V30.9322H147.622ZM160.167 26.8072V31.8892H159.089V27.8192H156.724V31.8892H155.646V26.8072H160.167ZM161.952 27.4122C162.48 26.8988 163.144 26.6422 163.943 26.6422C164.742 26.6422 165.406 26.8988 165.934 27.4122C166.462 27.9255 166.726 28.5708 166.726 29.3482C166.726 30.1255 166.462 30.7708 165.934 31.2842C165.406 31.7975 164.742 32.0542 163.943 32.0542C163.144 32.0542 162.48 31.7975 161.952 31.2842C161.424 30.7708 161.16 30.1255 161.16 29.3482C161.16 28.5708 161.424 27.9255 161.952 27.4122ZM165.12 28.1492C164.819 27.8485 164.427 27.6982 163.943 27.6982C163.459 27.6982 163.063 27.8485 162.755 28.1492C162.454 28.4498 162.304 28.8495 162.304 29.3482C162.304 29.8468 162.454 30.2465 162.755 30.5472C163.063 30.8478 163.459 30.9982 163.943 30.9982C164.427 30.9982 164.819 30.8478 165.12 30.5472C165.428 30.2465 165.582 29.8468 165.582 29.3482C165.582 28.8495 165.428 28.4498 165.12 28.1492ZM171.373 27.4122C171.901 26.8988 172.565 26.6422 173.364 26.6422C174.163 26.6422 174.827 26.8988 175.355 27.4122C175.883 27.9255 176.147 28.5708 176.147 29.3482C176.147 30.1255 175.883 30.7708 175.355 31.2842C174.827 31.7975 174.163 32.0542 173.364 32.0542C172.565 32.0542 171.901 31.7975 171.373 31.2842C170.845 30.7708 170.581 30.1255 170.581 29.3482C170.581 28.5708 170.845 27.9255 171.373 27.4122ZM174.541 28.1492C174.24 27.8485 173.848 27.6982 173.364 27.6982C172.88 27.6982 172.484 27.8485 172.176 28.1492C171.875 28.4498 171.725 28.8495 171.725 29.3482C171.725 29.8468 171.875 30.2465 172.176 30.5472C172.484 30.8478 172.88 30.9982 173.364 30.9982C173.848 30.9982 174.24 30.8478 174.541 30.5472C174.849 30.2465 175.003 29.8468 175.003 29.3482C175.003 28.8495 174.849 28.4498 174.541 28.1492ZM181.662 26.8072V31.8892H180.584V27.8192H178.219V31.8892H177.141V26.8072H181.662ZM186.989 26.8072V27.7972H185.218V31.8892H184.14V27.7972H182.38V26.8072H186.989ZM187.83 27.4122C188.358 26.8988 189.022 26.6422 189.821 26.6422C190.62 26.6422 191.284 26.8988 191.812 27.4122C192.34 27.9255 192.604 28.5708 192.604 29.3482C192.604 30.1255 192.34 30.7708 191.812 31.2842C191.284 31.7975 190.62 32.0542 189.821 32.0542C189.022 32.0542 188.358 31.7975 187.83 31.2842C187.302 30.7708 187.038 30.1255 187.038 29.3482C187.038 28.5708 187.302 27.9255 187.83 27.4122ZM190.998 28.1492C190.697 27.8485 190.305 27.6982 189.821 27.6982C189.337 27.6982 188.941 27.8485 188.633 28.1492C188.332 28.4498 188.182 28.8495 188.182 29.3482C188.182 29.8468 188.332 30.2465 188.633 30.5472C188.941 30.8478 189.337 30.9982 189.821 30.9982C190.305 30.9982 190.697 30.8478 190.998 30.5472C191.306 30.2465 191.46 29.8468 191.46 29.3482C191.46 28.8495 191.306 28.4498 190.998 28.1492ZM196.964 29.2382C197.698 29.3335 198.064 29.7405 198.064 30.4592C198.064 30.9285 197.885 31.2842 197.525 31.5262C197.173 31.7682 196.744 31.8892 196.238 31.8892H193.598V26.8072H196.326C196.796 26.8072 197.177 26.9208 197.47 27.1482C197.764 27.3682 197.91 27.6798 197.91 28.0832C197.91 28.7065 197.595 29.0878 196.964 29.2272V29.2382ZM196.084 27.6872H194.676V28.8312H196.095C196.557 28.8312 196.788 28.6332 196.788 28.2372C196.788 28.0685 196.726 27.9365 196.601 27.8412C196.484 27.7385 196.312 27.6872 196.084 27.6872ZM196.139 31.0092C196.389 31.0092 196.587 30.9542 196.733 30.8442C196.88 30.7342 196.953 30.5728 196.953 30.3602C196.953 29.9128 196.715 29.6892 196.238 29.6892H194.676V31.0092H196.139ZM201.507 28.6332C202.072 28.6332 202.516 28.7798 202.838 29.0732C203.168 29.3665 203.333 29.7588 203.333 30.2502C203.333 30.7195 203.168 31.1118 202.838 31.4272C202.508 31.7352 202.061 31.8892 201.496 31.8892H199.109V26.8072H200.187V28.6332H201.507ZM203.828 26.8072H204.906V31.8892H203.828V26.8072ZM201.397 30.9322C201.925 30.9322 202.189 30.7122 202.189 30.2722C202.189 29.8175 201.925 29.5902 201.397 29.5902H200.187V30.9322H201.397ZM205.736 31.8892L207.133 26.8072H208.112L209.212 29.5132H209.234L210.345 26.8072H211.324L212.721 31.8892H211.632L210.752 28.4022H210.73L209.608 31.0862H208.849L207.727 28.4022H207.705L206.825 31.8892H205.736ZM71.8949 43.8772H72.4999V46.3192H71.5539V44.8892H67.5389V39.8072H68.6169V43.8772H70.8169V39.8072H71.8949V43.8772ZM75.3156 39.6422C76.0783 39.6422 76.6723 39.8878 77.0976 40.3792C77.5303 40.8632 77.7466 41.5195 77.7466 42.3482V42.5242H73.8086C73.8306 42.9715 73.981 43.3345 74.2596 43.6132C74.5456 43.8845 74.9086 44.0202 75.3486 44.0202C75.95 44.0202 76.4706 43.7232 76.9106 43.1292L77.6696 43.8442C77.083 44.6508 76.3166 45.0542 75.3706 45.0542C74.564 45.0542 73.9186 44.8085 73.4346 44.3172C72.958 43.8185 72.7196 43.1658 72.7196 42.3592C72.7196 41.5672 72.9506 40.9182 73.4126 40.4122C73.882 39.8988 74.5163 39.6422 75.3156 39.6422ZM75.2496 40.6322C74.8756 40.6322 74.5676 40.7275 74.3256 40.9182C74.0836 41.1088 73.9296 41.3838 73.8636 41.7432H76.5806C76.5586 41.3912 76.4266 41.1198 76.1846 40.9292C75.95 40.7312 75.6383 40.6322 75.2496 40.6322ZM82.3953 39.8072H83.4733V44.8892H82.3953V42.7552H79.8103V44.8892H78.7323V39.8072H79.8103V41.7432H82.3953V39.8072ZM86.9359 45.0542C86.2392 45.0542 85.6525 44.8085 85.1759 44.3172C84.6992 43.8258 84.4609 43.1695 84.4609 42.3482C84.4609 41.5268 84.6992 40.8705 85.1759 40.3792C85.6525 39.8878 86.2392 39.6422 86.9359 39.6422C87.7279 39.6422 88.2999 39.9465 88.6519 40.5552H88.6739V39.8072H89.7519V44.8892H88.6739V44.1412H88.6519C88.2999 44.7498 87.7279 45.0542 86.9359 45.0542ZM86.0339 43.5472C86.3199 43.8478 86.6975 43.9982 87.1669 43.9982C87.6362 43.9982 88.0139 43.8478 88.2999 43.5472C88.5859 43.2392 88.7289 42.8395 88.7289 42.3482C88.7289 41.8568 88.5859 41.4608 88.2999 41.1602C88.0139 40.8522 87.6362 40.6982 87.1669 40.6982C86.6975 40.6982 86.3199 40.8522 86.0339 41.1602C85.7479 41.4608 85.6049 41.8568 85.6049 42.3482C85.6049 42.8395 85.7479 43.2392 86.0339 43.5472ZM90.58 44.8892L91.977 39.8072H92.956L94.056 42.5132H94.078L95.189 39.8072H96.168L97.565 44.8892H96.476L95.596 41.4022H95.574L94.452 44.0862H93.693L92.571 41.4022H92.549L91.669 44.8892H90.58ZM104.045 45.0542C103.224 45.0542 102.553 44.8048 102.032 44.3062C101.511 43.8075 101.251 43.1548 101.251 42.3482C101.251 41.5415 101.511 40.8888 102.032 40.3902C102.553 39.8915 103.224 39.6422 104.045 39.6422C104.683 39.6422 105.262 39.8145 105.783 40.1592L105.277 41.0722C104.866 40.8155 104.445 40.6872 104.012 40.6872C103.528 40.6872 103.136 40.8448 102.835 41.1602C102.542 41.4682 102.395 41.8642 102.395 42.3482C102.395 42.8322 102.542 43.2318 102.835 43.5472C103.136 43.8552 103.528 44.0092 104.012 44.0092C104.445 44.0092 104.866 43.8808 105.277 43.6242L105.783 44.5372C105.262 44.8818 104.683 45.0542 104.045 45.0542ZM114.076 44.0642H114.791V46.3192H113.845V45.0542H110.138V46.3192H109.192V44.0642H109.852C110.131 43.5655 110.27 43.0192 110.27 42.4252V39.8072H114.076V44.0642ZM111.348 42.4912C111.348 43.0705 111.231 43.5948 110.996 44.0642H112.998V40.7972H111.348V42.4912ZM115.804 40.4122C116.332 39.8988 116.995 39.6422 117.795 39.6422C118.594 39.6422 119.258 39.8988 119.786 40.4122C120.314 40.9255 120.578 41.5708 120.578 42.3482C120.578 43.1255 120.314 43.7708 119.786 44.2842C119.258 44.7975 118.594 45.0542 117.795 45.0542C116.995 45.0542 116.332 44.7975 115.804 44.2842C115.276 43.7708 115.012 43.1255 115.012 42.3482C115.012 41.5708 115.276 40.9255 115.804 40.4122ZM118.972 41.1492C118.671 40.8485 118.279 40.6982 117.795 40.6982C117.311 40.6982 116.915 40.8485 116.607 41.1492C116.306 41.4498 116.156 41.8495 116.156 42.3482C116.156 42.8468 116.306 43.2465 116.607 43.5472C116.915 43.8478 117.311 43.9982 117.795 43.9982C118.279 43.9982 118.671 43.8478 118.972 43.5472C119.28 43.2465 119.434 42.8468 119.434 42.3482C119.434 41.8495 119.28 41.4498 118.972 41.1492ZM124.036 45.0542C123.215 45.0542 122.544 44.8048 122.023 44.3062C121.502 43.8075 121.242 43.1548 121.242 42.3482C121.242 41.5415 121.502 40.8888 122.023 40.3902C122.544 39.8915 123.215 39.6422 124.036 39.6422C124.674 39.6422 125.253 39.8145 125.774 40.1592L125.268 41.0722C124.857 40.8155 124.436 40.6872 124.003 40.6872C123.519 40.6872 123.127 40.8448 122.826 41.1602C122.533 41.4682 122.386 41.8642 122.386 42.3482C122.386 42.8322 122.533 43.2318 122.826 43.5472C123.127 43.8552 123.519 44.0092 124.003 44.0092C124.436 44.0092 124.857 43.8808 125.268 43.6242L125.774 44.5372C125.253 44.8818 124.674 45.0542 124.036 45.0542ZM130.657 39.8072V40.7972H128.886V44.8892H127.808V40.7972H126.048V39.8072H130.657ZM133.181 45.0542C132.484 45.0542 131.898 44.8085 131.421 44.3172C130.944 43.8258 130.706 43.1695 130.706 42.3482C130.706 41.5268 130.944 40.8705 131.421 40.3792C131.898 39.8878 132.484 39.6422 133.181 39.6422C133.973 39.6422 134.545 39.9465 134.897 40.5552H134.919V39.8072H135.997V44.8892H134.919V44.1412H134.897C134.545 44.7498 133.973 45.0542 133.181 45.0542ZM132.279 43.5472C132.565 43.8478 132.943 43.9982 133.412 43.9982C133.881 43.9982 134.259 43.8478 134.545 43.5472C134.831 43.2392 134.974 42.8395 134.974 42.3482C134.974 41.8568 134.831 41.4608 134.545 41.1602C134.259 40.8522 133.881 40.6982 133.412 40.6982C132.943 40.6982 132.565 40.8522 132.279 41.1602C131.993 41.4608 131.85 41.8568 131.85 42.3482C131.85 42.8395 131.993 43.2392 132.279 43.5472ZM140.686 42.2382C141.419 42.3335 141.786 42.7405 141.786 43.4592C141.786 43.9285 141.606 44.2842 141.247 44.5262C140.895 44.7682 140.466 44.8892 139.96 44.8892H137.32V39.8072H140.048C140.517 39.8072 140.899 39.9208 141.192 40.1482C141.485 40.3682 141.632 40.6798 141.632 41.0832C141.632 41.7065 141.317 42.0878 140.686 42.2272V42.2382ZM139.806 40.6872H138.398V41.8312H139.817C140.279 41.8312 140.51 41.6332 140.51 41.2372C140.51 41.0685 140.448 40.9365 140.323 40.8412C140.206 40.7385 140.033 40.6872 139.806 40.6872ZM139.861 44.0092C140.11 44.0092 140.308 43.9542 140.455 43.8442C140.602 43.7342 140.675 43.5728 140.675 43.3602C140.675 42.9128 140.437 42.6892 139.96 42.6892H138.398V44.0092H139.861ZM147.374 44.8892H145.955L143.909 42.3922V44.8892H142.831V39.8072H143.909V41.9742L145.724 39.8072H147.143L145.009 42.1172L147.374 44.8892ZM148.105 40.4122C148.633 39.8988 149.297 39.6422 150.096 39.6422C150.896 39.6422 151.559 39.8988 152.087 40.4122C152.615 40.9255 152.879 41.5708 152.879 42.3482C152.879 43.1255 152.615 43.7708 152.087 44.2842C151.559 44.7975 150.896 45.0542 150.096 45.0542C149.297 45.0542 148.633 44.7975 148.105 44.2842C147.577 43.7708 147.313 43.1255 147.313 42.3482C147.313 41.5708 147.577 40.9255 148.105 40.4122ZM151.273 41.1492C150.973 40.8485 150.58 40.6982 150.096 40.6982C149.612 40.6982 149.216 40.8485 148.908 41.1492C148.608 41.4498 148.457 41.8495 148.457 42.3482C148.457 42.8468 148.608 43.2465 148.908 43.5472C149.216 43.8478 149.612 43.9982 150.096 43.9982C150.58 43.9982 150.973 43.8478 151.273 43.5472C151.581 43.2465 151.735 42.8468 151.735 42.3482C151.735 41.8495 151.581 41.4498 151.273 41.1492ZM157.68 37.8492C157.68 38.3258 157.541 38.7035 157.262 38.9822C156.991 39.2535 156.631 39.3892 156.184 39.3892C155.737 39.3892 155.374 39.2535 155.095 38.9822C154.824 38.7035 154.688 38.3258 154.688 37.8492H155.436C155.451 38.0985 155.524 38.2965 155.656 38.4432C155.788 38.5825 155.964 38.6522 156.184 38.6522C156.404 38.6522 156.58 38.5825 156.712 38.4432C156.844 38.2965 156.917 38.0985 156.932 37.8492H157.68ZM153.874 44.8892V39.8072H154.952V43.1842H154.974L157.493 39.8072H158.494V44.8892H157.416V41.5122H157.394L154.875 44.8892H153.874ZM167.526 39.8072V44.8892H166.448V40.8192H164.083V44.8892H163.005V39.8072H167.526ZM169.31 40.4122C169.838 39.8988 170.502 39.6422 171.301 39.6422C172.101 39.6422 172.764 39.8988 173.292 40.4122C173.82 40.9255 174.084 41.5708 174.084 42.3482C174.084 43.1255 173.82 43.7708 173.292 44.2842C172.764 44.7975 172.101 45.0542 171.301 45.0542C170.502 45.0542 169.838 44.7975 169.31 44.2842C168.782 43.7708 168.518 43.1255 168.518 42.3482C168.518 41.5708 168.782 40.9255 169.31 40.4122ZM172.478 41.1492C172.178 40.8485 171.785 40.6982 171.301 40.6982C170.817 40.6982 170.421 40.8485 170.113 41.1492C169.813 41.4498 169.662 41.8495 169.662 42.3482C169.662 42.8468 169.813 43.2465 170.113 43.5472C170.421 43.8478 170.817 43.9982 171.301 43.9982C171.785 43.9982 172.178 43.8478 172.478 43.5472C172.786 43.2465 172.94 42.8468 172.94 42.3482C172.94 41.8495 172.786 41.4498 172.478 41.1492ZM181.008 37.1892C181.756 37.1892 182.339 37.4092 182.757 37.8492C183.183 38.2818 183.395 38.8392 183.395 39.5212C183.395 40.2032 183.183 40.7642 182.757 41.2042C182.332 41.6368 181.749 41.8532 181.008 41.8532H179.523V44.8892H178.379V37.1892H181.008ZM180.854 40.7752C181.258 40.7752 181.577 40.6688 181.811 40.4562C182.046 40.2362 182.163 39.9245 182.163 39.5212C182.163 39.1178 182.046 38.8098 181.811 38.5972C181.577 38.3772 181.258 38.2672 180.854 38.2672H179.523V40.7752H180.854ZM184.242 40.4122C184.77 39.8988 185.434 39.6422 186.233 39.6422C187.032 39.6422 187.696 39.8988 188.224 40.4122C188.752 40.9255 189.016 41.5708 189.016 42.3482C189.016 43.1255 188.752 43.7708 188.224 44.2842C187.696 44.7975 187.032 45.0542 186.233 45.0542C185.434 45.0542 184.77 44.7975 184.242 44.2842C183.714 43.7708 183.45 43.1255 183.45 42.3482C183.45 41.5708 183.714 40.9255 184.242 40.4122ZM187.41 41.1492C187.109 40.8485 186.717 40.6982 186.233 40.6982C185.749 40.6982 185.353 40.8485 185.045 41.1492C184.744 41.4498 184.594 41.8495 184.594 42.3482C184.594 42.8468 184.744 43.2465 185.045 43.5472C185.353 43.8478 185.749 43.9982 186.233 43.9982C186.717 43.9982 187.109 43.8478 187.41 43.5472C187.718 43.2465 187.872 42.8468 187.872 42.3482C187.872 41.8495 187.718 41.4498 187.41 41.1492ZM192.475 45.0542C191.653 45.0542 190.982 44.8048 190.462 44.3062C189.941 43.8075 189.681 43.1548 189.681 42.3482C189.681 41.5415 189.941 40.8888 190.462 40.3902C190.982 39.8915 191.653 39.6422 192.475 39.6422C193.113 39.6422 193.692 39.8145 194.213 40.1592L193.707 41.0722C193.296 40.8155 192.874 40.6872 192.442 40.6872C191.958 40.6872 191.565 40.8448 191.265 41.1602C190.971 41.4682 190.825 41.8642 190.825 42.3482C190.825 42.8322 190.971 43.2318 191.265 43.5472C191.565 43.8552 191.958 44.0092 192.442 44.0092C192.874 44.0092 193.296 43.8808 193.707 43.6242L194.213 44.5372C193.692 44.8818 193.113 45.0542 192.475 45.0542ZM197.223 45.0542C196.401 45.0542 195.73 44.8048 195.21 44.3062C194.689 43.8075 194.429 43.1548 194.429 42.3482C194.429 41.5415 194.689 40.8888 195.21 40.3902C195.73 39.8915 196.401 39.6422 197.223 39.6422C197.861 39.6422 198.44 39.8145 198.961 40.1592L198.455 41.0722C198.044 40.8155 197.622 40.6872 197.19 40.6872C196.706 40.6872 196.313 40.8448 196.013 41.1602C195.719 41.4682 195.573 41.8642 195.573 42.3482C195.573 42.8322 195.719 43.2318 196.013 43.5472C196.313 43.8552 196.706 44.0092 197.19 44.0092C197.622 44.0092 198.044 43.8808 198.455 43.6242L198.961 44.5372C198.44 44.8818 197.861 45.0542 197.223 45.0542ZM199.84 44.8892V39.8072H200.918V43.1842H200.94L203.459 39.8072H204.46V44.8892H203.382V41.5122H203.36L200.841 44.8892H199.84ZM205.78 44.8892V39.8072H206.858V43.1842H206.88L209.399 39.8072H210.4V44.8892H209.322V41.5122H209.3L206.781 44.8892H205.78Z" fill="white"/>
<defs>
<linearGradient id="paint0_linear_101_3646" x1="-0.687499" y1="16.1897" x2="19.6463" y2="32.3372" gradientUnits="userSpaceOnUse">
<stop stop-color="white"/>
<stop offset="0.22" stop-color="white" stop-opacity="0.5776"/>
<stop offset="0.6" stop-color="white" stop-opacity="0.1296"/>
<stop offset="0.87" stop-color="white" stop-opacity="0.01"/>
<stop offset="1" stop-color="white" stop-opacity="0"/>
</linearGradient>
<linearGradient id="paint1_linear_101_3646" x1="25.6948" y1="34.0754" x2="38.926" y2="12.0982" gradientUnits="userSpaceOnUse">
<stop/>
<stop offset="1" stop-opacity="0"/>
</linearGradient>
</defs>
</svg>
