<svg width="214" height="48" viewBox="0 0 214 48" fill="none" xmlns="http://www.w3.org/2000/svg">
<path d="M27.9392 48.0002V30.8241C18.6271 25.6867 9.3121 20.5494 0 15.4121C9.3121 26.2757 18.6271 37.1365 27.9392 48.0002Z" fill="#272727"/>
<path d="M26.1541 43.5666V31.433C19.5744 27.8041 12.9976 24.1753 6.41797 20.5464C12.9976 28.2208 19.5744 35.8922 26.1541 43.5666Z" fill="url(#paint0_linear_101_1993)"/>
<path d="M55.878 15.4121L36.8516 39.9235L51.5768 16.3057L55.878 15.4121Z" fill="#272727"/>
<path d="M7.39062 10.7056C14.2404 8.07949 21.0901 5.45049 27.9399 2.82437V0C21.0901 3.56854 14.2404 7.13707 7.39062 10.7085V10.7056Z" fill="#CE2E41"/>
<path d="M55.8786 15.4119C46.5665 20.5521 37.2516 25.6894 27.9395 30.8268V0C37.2516 5.13731 46.5665 10.2775 55.8786 15.4148V15.4119Z" fill="#CE2E41"/>
<path opacity="0.59" d="M49.1374 16.5295C42.6899 20.0866 36.2424 23.6436 29.7949 27.2007V5.8584C36.2424 9.41544 42.6899 12.9725 49.1374 16.5295Z" fill="url(#paint1_linear_101_1993)"/>
<path d="M68.4866 1.35071C69.3445 0.543011 70.4901 0.13916 71.9207 0.13916H80.911V3.8926H72.1345C71.7491 3.8926 71.4218 3.97443 71.1579 4.13808C70.8939 4.30173 70.7619 4.61321 70.7619 5.07249V15.3509H67.2012V4.90091C67.2012 3.34094 67.6314 2.15842 68.4893 1.35071H68.4866Z" fill="#CE2E41"/>
<path d="M83.8073 0.117676H87.3681V5.86925H92.0243C92.3964 5.86925 92.7105 5.79798 92.9692 5.65545C93.2252 5.51291 93.4047 5.24896 93.505 4.86094L94.772 0.12031H98.3539L97.0658 4.90583C96.852 5.70825 96.4983 6.37868 96.0047 6.92243C95.5111 7.46618 94.7483 7.85156 93.7188 8.0812L93.7611 7.20222C94.5899 7.3606 95.226 7.57705 95.6695 7.85684C96.1129 8.13663 96.4349 8.47449 96.6355 8.8757C96.8362 9.27692 97.0368 9.8497 97.2374 10.5914L98.5255 15.3532H94.7483C94.6057 14.8252 94.5028 14.4267 94.4368 14.1627C94.3735 13.8988 94.2679 13.5081 94.1253 12.9934L93.4813 10.6336C93.3519 10.2324 93.1487 9.96584 92.8689 9.82858C92.5891 9.69396 92.2645 9.62534 91.8923 9.62534H87.3654V15.3532H83.8047V0.12031L83.8073 0.117676Z" fill="#CE2E41"/>
<path d="M109.682 0.117676H125.131V15.3505H121.57V3.87111H113.245V15.3505H109.684V0.117676H109.682Z" fill="#272727"/>
<path d="M129.851 14.1393C128.993 13.3316 128.562 12.1464 128.562 10.5891V4.88236C128.562 3.32238 128.993 2.13986 129.851 1.33216C130.708 0.524456 131.854 0.120605 133.285 0.120605H139.657C140.586 0.120605 141.404 0.294821 142.114 0.645882C142.821 0.996942 143.376 1.53013 143.777 2.24545C144.178 2.96077 144.379 3.83974 144.379 4.885V10.5917C144.379 12.1517 143.948 13.3342 143.091 14.1419C142.233 14.9496 141.087 15.3535 139.657 15.3535H133.285C131.854 15.3535 130.711 14.9496 129.851 14.1419V14.1393ZM140.417 11.3493C140.681 11.1856 140.813 10.8741 140.813 10.4149V5.05129C140.813 4.59465 140.681 4.28317 140.417 4.11688C140.153 3.95323 139.825 3.87141 139.44 3.87141H133.496C133.11 3.87141 132.783 3.95323 132.519 4.11688C132.255 4.28053 132.123 4.59201 132.123 5.05129V10.4149C132.123 10.8715 132.255 11.183 132.519 11.3493C132.783 11.5129 133.11 11.5974 133.496 11.5974H139.44C139.825 11.5974 140.15 11.5155 140.417 11.3493Z" fill="#272727"/>
<path d="M147.185 11.5946C147.486 11.5946 147.747 11.5735 147.969 11.5313C148.191 11.4891 148.384 11.3808 148.547 11.2093C148.711 11.0377 148.793 10.7737 148.793 10.4148V0.115234H164.155V15.3481H160.594V3.86867H152.269V10.5837C152.269 11.8428 152.058 12.822 151.635 13.5242C151.213 14.2263 150.635 14.704 149.899 14.9627C149.162 15.2214 148.249 15.3481 147.164 15.3481V11.5946H147.185Z" fill="#272727"/>
<path d="M167.592 0.117676H171.153V5.86925H176.453V9.6227H171.153V15.3505H167.592V0.117676ZM176.603 14.139C175.745 13.3313 175.315 12.1461 175.315 10.5888V4.88206C175.315 3.32209 175.745 2.13957 176.603 1.33186C177.461 0.52416 178.607 0.12031 180.037 0.12031H186.409C187.338 0.12031 188.157 0.294526 188.867 0.645586C189.574 0.996646 190.128 1.52983 190.53 2.24515C190.931 2.96047 191.131 3.83944 191.131 4.8847V10.5914C191.131 12.1514 190.701 13.3339 189.843 14.1416C188.985 14.9493 187.84 15.3532 186.409 15.3532H180.037C178.607 15.3532 177.464 14.9493 176.603 14.1416V14.139ZM187.169 11.349C187.433 11.1853 187.565 10.8738 187.565 10.4146V5.051C187.565 4.59436 187.433 4.28288 187.169 4.11659C186.905 3.95293 186.578 3.87111 186.193 3.87111H180.248C179.863 3.87111 179.536 3.95293 179.272 4.11659C179.008 4.28024 178.876 4.59172 178.876 5.051V10.4146C178.876 10.8712 179.008 11.1827 179.272 11.349C179.536 11.5126 179.863 11.5971 180.248 11.5971H186.193C186.578 11.5971 186.903 11.5153 187.169 11.349Z" fill="#272727"/>
<path d="M196.823 14.8252C196.116 14.4742 195.562 13.941 195.16 13.2257C194.759 12.5104 194.559 11.6314 194.559 10.5861V4.87942C194.559 3.31945 194.989 2.13693 195.847 1.32923C196.705 0.521526 197.85 0.117676 199.281 0.117676H209V3.87375H199.495C199.109 3.87375 198.782 3.95558 198.518 4.11923C198.254 4.28288 198.122 4.59436 198.122 5.05364V10.4172C198.122 10.8739 198.254 11.1853 198.518 11.3516C198.782 11.5153 199.109 11.5997 199.495 11.5997H209V15.3532H199.281C198.352 15.3532 197.533 15.1789 196.823 14.8279V14.8252Z" fill="#272727"/>
<path d="M71.3889 32.0493C70.1642 32.0493 69.1706 31.6789 68.4079 30.9383C67.6452 30.1976 67.2639 29.2296 67.2639 28.0343C67.2639 26.8389 67.6452 25.8709 68.4079 25.1303C69.1706 24.3896 70.1642 24.0193 71.3889 24.0193C72.4156 24.0193 73.3212 24.3016 74.1059 24.8663L73.4019 25.8673C72.7786 25.4126 72.0929 25.1853 71.3449 25.1853C70.5236 25.1853 69.8452 25.4456 69.3099 25.9663C68.7819 26.4869 68.5179 27.1763 68.5179 28.0343C68.5179 28.8923 68.7819 29.5816 69.3099 30.1023C69.8452 30.6229 70.5236 30.8833 71.3449 30.8833C72.0929 30.8833 72.7786 30.6559 73.4019 30.2013L74.1059 31.2023C73.3212 31.7669 72.4156 32.0493 71.3889 32.0493ZM78.3857 26.8023V27.7923H76.6147V31.8843H75.5367V27.7923H73.7767V26.8023H78.3857ZM79.0975 34.0843V26.8023H80.1755V27.5503H80.1975C80.5495 26.9416 81.1215 26.6373 81.9135 26.6373C82.6102 26.6373 83.1968 26.8829 83.6735 27.3743C84.1502 27.8656 84.3885 28.5219 84.3885 29.3433C84.3885 30.1646 84.1502 30.8209 83.6735 31.3123C83.1968 31.8036 82.6102 32.0493 81.9135 32.0493C81.1215 32.0493 80.5495 31.7449 80.1975 31.1363H80.1755V34.0843H79.0975ZM80.5495 30.5423C80.8355 30.8429 81.2132 30.9933 81.6825 30.9933C82.1518 30.9933 82.5295 30.8429 82.8155 30.5423C83.1015 30.2343 83.2445 29.8346 83.2445 29.3433C83.2445 28.8519 83.1015 28.4559 82.8155 28.1553C82.5295 27.8473 82.1518 27.6933 81.6825 27.6933C81.2132 27.6933 80.8355 27.8473 80.5495 28.1553C80.2635 28.4559 80.1205 28.8519 80.1205 29.3433C80.1205 29.8346 80.2635 30.2343 80.5495 30.5423ZM85.8437 27.4073C86.3717 26.8939 87.0353 26.6373 87.8347 26.6373C88.634 26.6373 89.2977 26.8939 89.8257 27.4073C90.3537 27.9206 90.6177 28.5659 90.6177 29.3433C90.6177 30.1206 90.3537 30.7659 89.8257 31.2793C89.2977 31.7926 88.634 32.0493 87.8347 32.0493C87.0353 32.0493 86.3717 31.7926 85.8437 31.2793C85.3157 30.7659 85.0517 30.1206 85.0517 29.3433C85.0517 28.5659 85.3157 27.9206 85.8437 27.4073ZM89.0117 28.1443C88.711 27.8436 88.3187 27.6933 87.8347 27.6933C87.3507 27.6933 86.9547 27.8436 86.6467 28.1443C86.346 28.4449 86.1957 28.8446 86.1957 29.3433C86.1957 29.8419 86.346 30.2416 86.6467 30.5423C86.9547 30.8429 87.3507 30.9933 87.8347 30.9933C88.3187 30.9933 88.711 30.8429 89.0117 30.5423C89.3197 30.2416 89.4737 29.8419 89.4737 29.3433C89.4737 28.8446 89.3197 28.4449 89.0117 28.1443ZM95.4181 24.8443C95.4181 25.3209 95.2788 25.6986 95.0001 25.9773C94.7288 26.2486 94.3695 26.3843 93.9221 26.3843C93.4748 26.3843 93.1118 26.2486 92.8331 25.9773C92.5618 25.6986 92.4261 25.3209 92.4261 24.8443H93.1741C93.1888 25.0936 93.2621 25.2916 93.3941 25.4383C93.5261 25.5776 93.7021 25.6473 93.9221 25.6473C94.1421 25.6473 94.3181 25.5776 94.4501 25.4383C94.5821 25.2916 94.6555 25.0936 94.6701 24.8443H95.4181ZM91.6121 31.8843V26.8023H92.6901V30.1793H92.7121L95.2311 26.8023H96.2321V31.8843H95.1541V28.5073H95.1321L92.6131 31.8843H91.6121ZM97.0576 31.8843L98.4546 26.8023H99.4336L100.534 29.5083H100.556L101.667 26.8023H102.646L104.043 31.8843H102.954L102.074 28.3973H102.052L100.93 31.0813H100.171L99.0486 28.3973H99.0266L98.1466 31.8843H97.0576ZM106.798 32.0493C106.101 32.0493 105.515 31.8036 105.038 31.3123C104.561 30.8209 104.323 30.1646 104.323 29.3433C104.323 28.5219 104.561 27.8656 105.038 27.3743C105.515 26.8829 106.101 26.6373 106.798 26.6373C107.59 26.6373 108.162 26.9416 108.514 27.5503H108.536V26.8023H109.614V31.8843H108.536V31.1363H108.514C108.162 31.7449 107.59 32.0493 106.798 32.0493ZM105.896 30.5423C106.182 30.8429 106.56 30.9933 107.029 30.9933C107.498 30.9933 107.876 30.8429 108.162 30.5423C108.448 30.2343 108.591 29.8346 108.591 29.3433C108.591 28.8519 108.448 28.4559 108.162 28.1553C107.876 27.8473 107.498 27.6933 107.029 27.6933C106.56 27.6933 106.182 27.8473 105.896 28.1553C105.61 28.4559 105.467 28.8519 105.467 29.3433C105.467 29.8346 105.61 30.2343 105.896 30.5423ZM114.941 26.8023V27.7923H113.17V31.8843H112.092V27.7923H110.332V26.8023H114.941ZM117.586 26.6373C118.349 26.6373 118.943 26.8829 119.368 27.3743C119.801 27.8583 120.017 28.5146 120.017 29.3433V29.5193H116.079C116.101 29.9666 116.251 30.3296 116.53 30.6083C116.816 30.8796 117.179 31.0153 117.619 31.0153C118.22 31.0153 118.741 30.7183 119.181 30.1243L119.94 30.8393C119.353 31.6459 118.587 32.0493 117.641 32.0493C116.834 32.0493 116.189 31.8036 115.705 31.3123C115.228 30.8136 114.99 30.1609 114.99 29.3543C114.99 28.5623 115.221 27.9133 115.683 27.4073C116.152 26.8939 116.787 26.6373 117.586 26.6373ZM117.52 27.6273C117.146 27.6273 116.838 27.7226 116.596 27.9133C116.354 28.1039 116.2 28.3789 116.134 28.7383H118.851C118.829 28.3863 118.697 28.1149 118.455 27.9243C118.22 27.7263 117.909 27.6273 117.52 27.6273ZM121.003 34.0843V26.8023H122.081V27.5503H122.103C122.455 26.9416 123.027 26.6373 123.819 26.6373C124.515 26.6373 125.102 26.8829 125.579 27.3743C126.055 27.8656 126.294 28.5219 126.294 29.3433C126.294 30.1646 126.055 30.8209 125.579 31.3123C125.102 31.8036 124.515 32.0493 123.819 32.0493C123.027 32.0493 122.455 31.7449 122.103 31.1363H122.081V34.0843H121.003ZM122.455 30.5423C122.741 30.8429 123.118 30.9933 123.588 30.9933C124.057 30.9933 124.435 30.8429 124.721 30.5423C125.007 30.2343 125.15 29.8346 125.15 29.3433C125.15 28.8519 125.007 28.4559 124.721 28.1553C124.435 27.8473 124.057 27.6933 123.588 27.6933C123.118 27.6933 122.741 27.8473 122.455 28.1553C122.169 28.4559 122.026 28.8519 122.026 29.3433C122.026 29.8346 122.169 30.2343 122.455 30.5423ZM127.287 31.8843V26.8023H128.365V30.1793H128.387L130.906 26.8023H131.907V31.8843H130.829V28.5073H130.807L128.288 31.8843H127.287ZM135.372 32.0493C134.676 32.0493 134.089 31.8036 133.612 31.3123C133.136 30.8209 132.897 30.1646 132.897 29.3433C132.897 28.5219 133.136 27.8656 133.612 27.3743C134.089 26.8829 134.676 26.6373 135.372 26.6373C136.164 26.6373 136.736 26.9416 137.088 27.5503H137.11V26.8023H138.188V31.8843H137.11V31.1363H137.088C136.736 31.7449 136.164 32.0493 135.372 32.0493ZM134.47 30.5423C134.756 30.8429 135.134 30.9933 135.603 30.9933C136.073 30.9933 136.45 30.8429 136.736 30.5423C137.022 30.2343 137.165 29.8346 137.165 29.3433C137.165 28.8519 137.022 28.4559 136.736 28.1553C136.45 27.8473 136.073 27.6933 135.603 27.6933C135.134 27.6933 134.756 27.8473 134.47 28.1553C134.184 28.4559 134.041 28.8519 134.041 29.3433C134.041 29.8346 134.184 30.2343 134.47 30.5423ZM144.011 26.8023V31.8843H142.933V27.8143H140.843V30.4873C140.843 30.9713 140.722 31.3379 140.48 31.5873C140.238 31.8366 139.908 31.9613 139.49 31.9613H138.962V30.9823H139.314C139.614 30.9823 139.765 30.8136 139.765 30.4763V26.8023H144.011ZM147.732 28.6283C148.296 28.6283 148.74 28.7749 149.063 29.0683C149.393 29.3616 149.558 29.7539 149.558 30.2453C149.558 30.7146 149.393 31.1069 149.063 31.4223C148.733 31.7303 148.285 31.8843 147.721 31.8843H145.334V26.8023H146.412V28.6283H147.732ZM150.053 26.8023H151.131V31.8843H150.053V26.8023ZM147.622 30.9273C148.15 30.9273 148.414 30.7073 148.414 30.2673C148.414 29.8126 148.15 29.5853 147.622 29.5853H146.412V30.9273H147.622ZM160.167 26.8023V31.8843H159.089V27.8143H156.724V31.8843H155.646V26.8023H160.167ZM161.952 27.4073C162.48 26.8939 163.144 26.6373 163.943 26.6373C164.742 26.6373 165.406 26.8939 165.934 27.4073C166.462 27.9206 166.726 28.5659 166.726 29.3433C166.726 30.1206 166.462 30.7659 165.934 31.2793C165.406 31.7926 164.742 32.0493 163.943 32.0493C163.144 32.0493 162.48 31.7926 161.952 31.2793C161.424 30.7659 161.16 30.1206 161.16 29.3433C161.16 28.5659 161.424 27.9206 161.952 27.4073ZM165.12 28.1443C164.819 27.8436 164.427 27.6933 163.943 27.6933C163.459 27.6933 163.063 27.8436 162.755 28.1443C162.454 28.4449 162.304 28.8446 162.304 29.3433C162.304 29.8419 162.454 30.2416 162.755 30.5423C163.063 30.8429 163.459 30.9933 163.943 30.9933C164.427 30.9933 164.819 30.8429 165.12 30.5423C165.428 30.2416 165.582 29.8419 165.582 29.3433C165.582 28.8446 165.428 28.4449 165.12 28.1443ZM171.373 27.4073C171.901 26.8939 172.565 26.6373 173.364 26.6373C174.163 26.6373 174.827 26.8939 175.355 27.4073C175.883 27.9206 176.147 28.5659 176.147 29.3433C176.147 30.1206 175.883 30.7659 175.355 31.2793C174.827 31.7926 174.163 32.0493 173.364 32.0493C172.565 32.0493 171.901 31.7926 171.373 31.2793C170.845 30.7659 170.581 30.1206 170.581 29.3433C170.581 28.5659 170.845 27.9206 171.373 27.4073ZM174.541 28.1443C174.24 27.8436 173.848 27.6933 173.364 27.6933C172.88 27.6933 172.484 27.8436 172.176 28.1443C171.875 28.4449 171.725 28.8446 171.725 29.3433C171.725 29.8419 171.875 30.2416 172.176 30.5423C172.484 30.8429 172.88 30.9933 173.364 30.9933C173.848 30.9933 174.24 30.8429 174.541 30.5423C174.849 30.2416 175.003 29.8419 175.003 29.3433C175.003 28.8446 174.849 28.4449 174.541 28.1443ZM181.662 26.8023V31.8843H180.584V27.8143H178.219V31.8843H177.141V26.8023H181.662ZM186.989 26.8023V27.7923H185.218V31.8843H184.14V27.7923H182.38V26.8023H186.989ZM187.83 27.4073C188.358 26.8939 189.022 26.6373 189.821 26.6373C190.62 26.6373 191.284 26.8939 191.812 27.4073C192.34 27.9206 192.604 28.5659 192.604 29.3433C192.604 30.1206 192.34 30.7659 191.812 31.2793C191.284 31.7926 190.62 32.0493 189.821 32.0493C189.022 32.0493 188.358 31.7926 187.83 31.2793C187.302 30.7659 187.038 30.1206 187.038 29.3433C187.038 28.5659 187.302 27.9206 187.83 27.4073ZM190.998 28.1443C190.697 27.8436 190.305 27.6933 189.821 27.6933C189.337 27.6933 188.941 27.8436 188.633 28.1443C188.332 28.4449 188.182 28.8446 188.182 29.3433C188.182 29.8419 188.332 30.2416 188.633 30.5423C188.941 30.8429 189.337 30.9933 189.821 30.9933C190.305 30.9933 190.697 30.8429 190.998 30.5423C191.306 30.2416 191.46 29.8419 191.46 29.3433C191.46 28.8446 191.306 28.4449 190.998 28.1443ZM196.964 29.2333C197.698 29.3286 198.064 29.7356 198.064 30.4543C198.064 30.9236 197.885 31.2793 197.525 31.5213C197.173 31.7633 196.744 31.8843 196.238 31.8843H193.598V26.8023H196.326C196.796 26.8023 197.177 26.9159 197.47 27.1433C197.764 27.3633 197.91 27.6749 197.91 28.0783C197.91 28.7016 197.595 29.0829 196.964 29.2223V29.2333ZM196.084 27.6823H194.676V28.8263H196.095C196.557 28.8263 196.788 28.6283 196.788 28.2323C196.788 28.0636 196.726 27.9316 196.601 27.8363C196.484 27.7336 196.312 27.6823 196.084 27.6823ZM196.139 31.0043C196.389 31.0043 196.587 30.9493 196.733 30.8393C196.88 30.7293 196.953 30.5679 196.953 30.3553C196.953 29.9079 196.715 29.6843 196.238 29.6843H194.676V31.0043H196.139ZM201.507 28.6283C202.072 28.6283 202.516 28.7749 202.838 29.0683C203.168 29.3616 203.333 29.7539 203.333 30.2453C203.333 30.7146 203.168 31.1069 202.838 31.4223C202.508 31.7303 202.061 31.8843 201.496 31.8843H199.109V26.8023H200.187V28.6283H201.507ZM203.828 26.8023H204.906V31.8843H203.828V26.8023ZM201.397 30.9273C201.925 30.9273 202.189 30.7073 202.189 30.2673C202.189 29.8126 201.925 29.5853 201.397 29.5853H200.187V30.9273H201.397ZM205.736 31.8843L207.133 26.8023H208.112L209.212 29.5083H209.234L210.345 26.8023H211.324L212.721 31.8843H211.632L210.752 28.3973H210.73L209.608 31.0813H208.849L207.727 28.3973H207.705L206.825 31.8843H205.736ZM71.8949 43.8723H72.4999V46.3143H71.5539V44.8843H67.5389V39.8023H68.6169V43.8723H70.8169V39.8023H71.8949V43.8723ZM75.3156 39.6373C76.0783 39.6373 76.6723 39.8829 77.0976 40.3743C77.5303 40.8583 77.7466 41.5146 77.7466 42.3433V42.5193H73.8086C73.8306 42.9666 73.981 43.3296 74.2596 43.6083C74.5456 43.8796 74.9086 44.0153 75.3486 44.0153C75.95 44.0153 76.4706 43.7183 76.9106 43.1243L77.6696 43.8393C77.083 44.6459 76.3166 45.0493 75.3706 45.0493C74.564 45.0493 73.9186 44.8036 73.4346 44.3123C72.958 43.8136 72.7196 43.1609 72.7196 42.3543C72.7196 41.5623 72.9506 40.9133 73.4126 40.4073C73.882 39.8939 74.5163 39.6373 75.3156 39.6373ZM75.2496 40.6273C74.8756 40.6273 74.5676 40.7226 74.3256 40.9133C74.0836 41.1039 73.9296 41.3789 73.8636 41.7383H76.5806C76.5586 41.3863 76.4266 41.1149 76.1846 40.9243C75.95 40.7263 75.6383 40.6273 75.2496 40.6273ZM82.3953 39.8023H83.4733V44.8843H82.3953V42.7503H79.8103V44.8843H78.7323V39.8023H79.8103V41.7383H82.3953V39.8023ZM86.9359 45.0493C86.2392 45.0493 85.6525 44.8036 85.1759 44.3123C84.6992 43.8209 84.4609 43.1646 84.4609 42.3433C84.4609 41.5219 84.6992 40.8656 85.1759 40.3743C85.6525 39.8829 86.2392 39.6373 86.9359 39.6373C87.7279 39.6373 88.2999 39.9416 88.6519 40.5503H88.6739V39.8023H89.7519V44.8843H88.6739V44.1363H88.6519C88.2999 44.7449 87.7279 45.0493 86.9359 45.0493ZM86.0339 43.5423C86.3199 43.8429 86.6975 43.9933 87.1669 43.9933C87.6362 43.9933 88.0139 43.8429 88.2999 43.5423C88.5859 43.2343 88.7289 42.8346 88.7289 42.3433C88.7289 41.8519 88.5859 41.4559 88.2999 41.1553C88.0139 40.8473 87.6362 40.6933 87.1669 40.6933C86.6975 40.6933 86.3199 40.8473 86.0339 41.1553C85.7479 41.4559 85.6049 41.8519 85.6049 42.3433C85.6049 42.8346 85.7479 43.2343 86.0339 43.5423ZM90.58 44.8843L91.977 39.8023H92.956L94.056 42.5083H94.078L95.189 39.8023H96.168L97.565 44.8843H96.476L95.596 41.3973H95.574L94.452 44.0813H93.693L92.571 41.3973H92.549L91.669 44.8843H90.58ZM104.045 45.0493C103.224 45.0493 102.553 44.7999 102.032 44.3013C101.511 43.8026 101.251 43.1499 101.251 42.3433C101.251 41.5366 101.511 40.8839 102.032 40.3853C102.553 39.8866 103.224 39.6373 104.045 39.6373C104.683 39.6373 105.262 39.8096 105.783 40.1543L105.277 41.0673C104.866 40.8106 104.445 40.6823 104.012 40.6823C103.528 40.6823 103.136 40.8399 102.835 41.1553C102.542 41.4633 102.395 41.8593 102.395 42.3433C102.395 42.8273 102.542 43.2269 102.835 43.5423C103.136 43.8503 103.528 44.0043 104.012 44.0043C104.445 44.0043 104.866 43.8759 105.277 43.6193L105.783 44.5323C105.262 44.8769 104.683 45.0493 104.045 45.0493ZM114.076 44.0593H114.791V46.3143H113.845V45.0493H110.138V46.3143H109.192V44.0593H109.852C110.131 43.5606 110.27 43.0143 110.27 42.4203V39.8023H114.076V44.0593ZM111.348 42.4863C111.348 43.0656 111.231 43.5899 110.996 44.0593H112.998V40.7923H111.348V42.4863ZM115.804 40.4073C116.332 39.8939 116.995 39.6373 117.795 39.6373C118.594 39.6373 119.258 39.8939 119.786 40.4073C120.314 40.9206 120.578 41.5659 120.578 42.3433C120.578 43.1206 120.314 43.7659 119.786 44.2793C119.258 44.7926 118.594 45.0493 117.795 45.0493C116.995 45.0493 116.332 44.7926 115.804 44.2793C115.276 43.7659 115.012 43.1206 115.012 42.3433C115.012 41.5659 115.276 40.9206 115.804 40.4073ZM118.972 41.1443C118.671 40.8436 118.279 40.6933 117.795 40.6933C117.311 40.6933 116.915 40.8436 116.607 41.1443C116.306 41.4449 116.156 41.8446 116.156 42.3433C116.156 42.8419 116.306 43.2416 116.607 43.5423C116.915 43.8429 117.311 43.9933 117.795 43.9933C118.279 43.9933 118.671 43.8429 118.972 43.5423C119.28 43.2416 119.434 42.8419 119.434 42.3433C119.434 41.8446 119.28 41.4449 118.972 41.1443ZM124.036 45.0493C123.215 45.0493 122.544 44.7999 122.023 44.3013C121.502 43.8026 121.242 43.1499 121.242 42.3433C121.242 41.5366 121.502 40.8839 122.023 40.3853C122.544 39.8866 123.215 39.6373 124.036 39.6373C124.674 39.6373 125.253 39.8096 125.774 40.1543L125.268 41.0673C124.857 40.8106 124.436 40.6823 124.003 40.6823C123.519 40.6823 123.127 40.8399 122.826 41.1553C122.533 41.4633 122.386 41.8593 122.386 42.3433C122.386 42.8273 122.533 43.2269 122.826 43.5423C123.127 43.8503 123.519 44.0043 124.003 44.0043C124.436 44.0043 124.857 43.8759 125.268 43.6193L125.774 44.5323C125.253 44.8769 124.674 45.0493 124.036 45.0493ZM130.657 39.8023V40.7923H128.886V44.8843H127.808V40.7923H126.048V39.8023H130.657ZM133.181 45.0493C132.484 45.0493 131.898 44.8036 131.421 44.3123C130.944 43.8209 130.706 43.1646 130.706 42.3433C130.706 41.5219 130.944 40.8656 131.421 40.3743C131.898 39.8829 132.484 39.6373 133.181 39.6373C133.973 39.6373 134.545 39.9416 134.897 40.5503H134.919V39.8023H135.997V44.8843H134.919V44.1363H134.897C134.545 44.7449 133.973 45.0493 133.181 45.0493ZM132.279 43.5423C132.565 43.8429 132.943 43.9933 133.412 43.9933C133.881 43.9933 134.259 43.8429 134.545 43.5423C134.831 43.2343 134.974 42.8346 134.974 42.3433C134.974 41.8519 134.831 41.4559 134.545 41.1553C134.259 40.8473 133.881 40.6933 133.412 40.6933C132.943 40.6933 132.565 40.8473 132.279 41.1553C131.993 41.4559 131.85 41.8519 131.85 42.3433C131.85 42.8346 131.993 43.2343 132.279 43.5423ZM140.686 42.2333C141.419 42.3286 141.786 42.7356 141.786 43.4543C141.786 43.9236 141.606 44.2793 141.247 44.5213C140.895 44.7633 140.466 44.8843 139.96 44.8843H137.32V39.8023H140.048C140.517 39.8023 140.899 39.9159 141.192 40.1433C141.485 40.3633 141.632 40.6749 141.632 41.0783C141.632 41.7016 141.317 42.0829 140.686 42.2223V42.2333ZM139.806 40.6823H138.398V41.8263H139.817C140.279 41.8263 140.51 41.6283 140.51 41.2323C140.51 41.0636 140.448 40.9316 140.323 40.8363C140.206 40.7336 140.033 40.6823 139.806 40.6823ZM139.861 44.0043C140.11 44.0043 140.308 43.9493 140.455 43.8393C140.602 43.7293 140.675 43.5679 140.675 43.3553C140.675 42.9079 140.437 42.6843 139.96 42.6843H138.398V44.0043H139.861ZM147.374 44.8843H145.955L143.909 42.3873V44.8843H142.831V39.8023H143.909V41.9693L145.724 39.8023H147.143L145.009 42.1123L147.374 44.8843ZM148.105 40.4073C148.633 39.8939 149.297 39.6373 150.096 39.6373C150.896 39.6373 151.559 39.8939 152.087 40.4073C152.615 40.9206 152.879 41.5659 152.879 42.3433C152.879 43.1206 152.615 43.7659 152.087 44.2793C151.559 44.7926 150.896 45.0493 150.096 45.0493C149.297 45.0493 148.633 44.7926 148.105 44.2793C147.577 43.7659 147.313 43.1206 147.313 42.3433C147.313 41.5659 147.577 40.9206 148.105 40.4073ZM151.273 41.1443C150.973 40.8436 150.58 40.6933 150.096 40.6933C149.612 40.6933 149.216 40.8436 148.908 41.1443C148.608 41.4449 148.457 41.8446 148.457 42.3433C148.457 42.8419 148.608 43.2416 148.908 43.5423C149.216 43.8429 149.612 43.9933 150.096 43.9933C150.58 43.9933 150.973 43.8429 151.273 43.5423C151.581 43.2416 151.735 42.8419 151.735 42.3433C151.735 41.8446 151.581 41.4449 151.273 41.1443ZM157.68 37.8443C157.68 38.3209 157.541 38.6986 157.262 38.9773C156.991 39.2486 156.631 39.3843 156.184 39.3843C155.737 39.3843 155.374 39.2486 155.095 38.9773C154.824 38.6986 154.688 38.3209 154.688 37.8443H155.436C155.451 38.0936 155.524 38.2916 155.656 38.4383C155.788 38.5776 155.964 38.6473 156.184 38.6473C156.404 38.6473 156.58 38.5776 156.712 38.4383C156.844 38.2916 156.917 38.0936 156.932 37.8443H157.68ZM153.874 44.8843V39.8023H154.952V43.1793H154.974L157.493 39.8023H158.494V44.8843H157.416V41.5073H157.394L154.875 44.8843H153.874ZM167.526 39.8023V44.8843H166.448V40.8143H164.083V44.8843H163.005V39.8023H167.526ZM169.31 40.4073C169.838 39.8939 170.502 39.6373 171.301 39.6373C172.101 39.6373 172.764 39.8939 173.292 40.4073C173.82 40.9206 174.084 41.5659 174.084 42.3433C174.084 43.1206 173.82 43.7659 173.292 44.2793C172.764 44.7926 172.101 45.0493 171.301 45.0493C170.502 45.0493 169.838 44.7926 169.31 44.2793C168.782 43.7659 168.518 43.1206 168.518 42.3433C168.518 41.5659 168.782 40.9206 169.31 40.4073ZM172.478 41.1443C172.178 40.8436 171.785 40.6933 171.301 40.6933C170.817 40.6933 170.421 40.8436 170.113 41.1443C169.813 41.4449 169.662 41.8446 169.662 42.3433C169.662 42.8419 169.813 43.2416 170.113 43.5423C170.421 43.8429 170.817 43.9933 171.301 43.9933C171.785 43.9933 172.178 43.8429 172.478 43.5423C172.786 43.2416 172.94 42.8419 172.94 42.3433C172.94 41.8446 172.786 41.4449 172.478 41.1443ZM181.008 37.1843C181.756 37.1843 182.339 37.4043 182.757 37.8443C183.183 38.2769 183.395 38.8343 183.395 39.5163C183.395 40.1983 183.183 40.7593 182.757 41.1993C182.332 41.6319 181.749 41.8483 181.008 41.8483H179.523V44.8843H178.379V37.1843H181.008ZM180.854 40.7703C181.258 40.7703 181.577 40.6639 181.811 40.4513C182.046 40.2313 182.163 39.9196 182.163 39.5163C182.163 39.1129 182.046 38.8049 181.811 38.5923C181.577 38.3723 181.258 38.2623 180.854 38.2623H179.523V40.7703H180.854ZM184.242 40.4073C184.77 39.8939 185.434 39.6373 186.233 39.6373C187.032 39.6373 187.696 39.8939 188.224 40.4073C188.752 40.9206 189.016 41.5659 189.016 42.3433C189.016 43.1206 188.752 43.7659 188.224 44.2793C187.696 44.7926 187.032 45.0493 186.233 45.0493C185.434 45.0493 184.77 44.7926 184.242 44.2793C183.714 43.7659 183.45 43.1206 183.45 42.3433C183.45 41.5659 183.714 40.9206 184.242 40.4073ZM187.41 41.1443C187.109 40.8436 186.717 40.6933 186.233 40.6933C185.749 40.6933 185.353 40.8436 185.045 41.1443C184.744 41.4449 184.594 41.8446 184.594 42.3433C184.594 42.8419 184.744 43.2416 185.045 43.5423C185.353 43.8429 185.749 43.9933 186.233 43.9933C186.717 43.9933 187.109 43.8429 187.41 43.5423C187.718 43.2416 187.872 42.8419 187.872 42.3433C187.872 41.8446 187.718 41.4449 187.41 41.1443ZM192.475 45.0493C191.653 45.0493 190.982 44.7999 190.462 44.3013C189.941 43.8026 189.681 43.1499 189.681 42.3433C189.681 41.5366 189.941 40.8839 190.462 40.3853C190.982 39.8866 191.653 39.6373 192.475 39.6373C193.113 39.6373 193.692 39.8096 194.213 40.1543L193.707 41.0673C193.296 40.8106 192.874 40.6823 192.442 40.6823C191.958 40.6823 191.565 40.8399 191.265 41.1553C190.971 41.4633 190.825 41.8593 190.825 42.3433C190.825 42.8273 190.971 43.2269 191.265 43.5423C191.565 43.8503 191.958 44.0043 192.442 44.0043C192.874 44.0043 193.296 43.8759 193.707 43.6193L194.213 44.5323C193.692 44.8769 193.113 45.0493 192.475 45.0493ZM197.223 45.0493C196.401 45.0493 195.73 44.7999 195.21 44.3013C194.689 43.8026 194.429 43.1499 194.429 42.3433C194.429 41.5366 194.689 40.8839 195.21 40.3853C195.73 39.8866 196.401 39.6373 197.223 39.6373C197.861 39.6373 198.44 39.8096 198.961 40.1543L198.455 41.0673C198.044 40.8106 197.622 40.6823 197.19 40.6823C196.706 40.6823 196.313 40.8399 196.013 41.1553C195.719 41.4633 195.573 41.8593 195.573 42.3433C195.573 42.8273 195.719 43.2269 196.013 43.5423C196.313 43.8503 196.706 44.0043 197.19 44.0043C197.622 44.0043 198.044 43.8759 198.455 43.6193L198.961 44.5323C198.44 44.8769 197.861 45.0493 197.223 45.0493ZM199.84 44.8843V39.8023H200.918V43.1793H200.94L203.459 39.8023H204.46V44.8843H203.382V41.5073H203.36L200.841 44.8843H199.84ZM205.78 44.8843V39.8023H206.858V43.1793H206.88L209.399 39.8023H210.4V44.8843H209.322V41.5073H209.3L206.781 44.8843H205.78Z" fill="#272727"/>
<defs>
<linearGradient id="paint0_linear_101_1993" x1="-0.687499" y1="16.1848" x2="19.6463" y2="32.3323" gradientUnits="userSpaceOnUse">
<stop stop-color="white"/>
<stop offset="0.22" stop-color="white" stop-opacity="0.5776"/>
<stop offset="0.6" stop-color="white" stop-opacity="0.1296"/>
<stop offset="0.87" stop-color="white" stop-opacity="0.01"/>
<stop offset="1" stop-color="white" stop-opacity="0"/>
</linearGradient>
<linearGradient id="paint1_linear_101_1993" x1="25.6948" y1="34.0705" x2="38.926" y2="12.0933" gradientUnits="userSpaceOnUse">
<stop/>
<stop offset="1" stop-opacity="0"/>
</linearGradient>
</defs>
</svg>
