<svg width="35" height="20" viewBox="0 0 35 20" fill="none" xmlns="http://www.w3.org/2000/svg">
<g clip-path="url(#clip0_101_3712)">
<path d="M21.9728 2.43457H13.2461V17.5757H21.9728V2.43457Z" fill="#585AB8"/>
<path d="M13.8024 10.0057C13.8017 8.5438 14.1443 7.10217 14.8024 5.7968C15.4696 4.47621 16.4304 3.32604 17.6113 2.43458C16.1269 1.31298 14.3633 0.620063 12.5124 0.431247C10.6556 0.237983 8.7812 0.55371 7.09016 1.34458C5.41994 2.1228 4.00115 3.35338 2.99461 4.8968C2.00486 6.41708 1.4769 8.19162 1.47461 10.0057C1.47461 11.8124 2.00128 13.5835 2.99461 15.1146C4.00089 16.6578 5.41927 17.8884 7.08905 18.6668C8.78042 19.4579 10.6552 19.7736 12.5124 19.5801C14.3633 19.3913 16.1269 18.6984 17.6113 17.5768C16.431 16.6855 15.4705 15.5357 14.8035 14.2157C14.1448 12.9101 13.8019 11.4681 13.8024 10.0057Z" fill="#EB001B"/>
<path d="M33.746 10.0048C33.746 11.8115 33.2194 13.5826 32.2272 15.1137C31.2207 16.6572 29.8019 17.8877 28.1316 18.6659C26.4406 19.4568 24.5662 19.7726 22.7094 19.5793C20.8581 19.3906 19.0941 18.6977 17.6094 17.5759C18.789 16.6838 19.749 15.5337 20.416 14.2137C21.0747 12.9084 21.4183 11.4669 21.4194 10.0048C21.4185 8.5432 21.0752 7.10212 20.4172 5.79703C19.7502 4.47662 18.7902 3.32619 17.6105 2.4337C19.0946 1.31229 20.8578 0.619379 22.7083 0.430365C24.5654 0.236896 26.4402 0.552628 28.1316 1.3437C29.8018 2.12192 31.2206 3.3525 32.2272 4.89592C33.2165 6.41632 33.7441 8.19085 33.746 10.0048ZM32.7949 15.9748V15.6637H32.9238V15.6015H32.5949V15.6637H32.7238V15.9748H32.7949ZM33.4349 15.9748V15.6004H33.3338L33.2172 15.8581L33.1005 15.6004H33.0005V15.9748H33.0716V15.6926L33.1805 15.9359H33.2549L33.3638 15.6915V15.9748H33.4349Z" fill="#0E8BC5"/>
</g>
<defs>
<clipPath id="clip0_101_3712">
<rect width="33.3333" height="20" fill="white" transform="translate(0.955078 0.00488281)"/>
</clipPath>
</defs>
</svg>
