<svg width="35" height="20" viewBox="0 0 35 20" fill="none" xmlns="http://www.w3.org/2000/svg">
<g clip-path="url(#clip0_101_3708)">
<path d="M21.8282 2.43457H13.1016V17.5757H21.8282V2.43457Z" fill="#FF5F00"/>
<path d="M13.6579 10.0057C13.6572 8.5438 13.9997 7.10217 14.6579 5.7968C15.325 4.47621 16.2859 3.32604 17.4667 2.43458C15.9824 1.31298 14.2187 0.620063 12.3679 0.431247C10.5111 0.237983 8.63666 0.55371 6.94563 1.34458C5.27541 2.1228 3.85661 3.35338 2.85008 4.8968C1.86033 6.41708 1.33237 8.19162 1.33008 10.0057C1.33008 11.8124 1.85674 13.5835 2.85008 15.1146C3.85636 16.6578 5.27474 17.8884 6.94452 18.6668C8.63589 19.4579 10.5107 19.7736 12.3679 19.5801C14.2187 19.3913 15.9824 18.6984 17.4667 17.5768C16.2865 16.6855 15.326 15.5357 14.659 14.2157C14.0002 12.9101 13.6573 11.4681 13.6579 10.0057Z" fill="#EB001B"/>
<path d="M33.6015 10.0048C33.6015 11.8115 33.0748 13.5826 32.0826 15.1137C31.0761 16.6572 29.6573 17.8877 27.9871 18.6659C26.2961 19.4568 24.4216 19.7726 22.5648 19.5793C20.7136 19.3906 18.9495 18.6977 17.4648 17.5759C18.6444 16.6838 19.6044 15.5337 20.2715 14.2137C20.9301 12.9084 21.2738 11.4669 21.2748 10.0048C21.2739 8.5432 20.9307 7.10212 20.2726 5.79703C19.6057 4.47662 18.6457 3.32619 17.466 2.4337C18.95 1.31229 20.7132 0.619379 22.5637 0.430365C24.4209 0.236896 26.2957 0.552628 27.9871 1.3437C29.6573 2.12192 31.0761 3.3525 32.0826 4.89592C33.072 6.41632 33.5996 8.19085 33.6015 10.0048ZM32.6504 15.9748V15.6637H32.7793V15.6015H32.4504V15.6637H32.5793V15.9748H32.6504ZM33.2904 15.9748V15.6004H33.1893L33.0726 15.8581L32.956 15.6004H32.856V15.9748H32.9271V15.6926L33.036 15.9359H33.1104L33.2193 15.6915V15.9748H33.2904Z" fill="#F79E1B"/>
</g>
<defs>
<clipPath id="clip0_101_3708">
<rect width="33.3333" height="20" fill="white" transform="translate(0.810547 0.00488281)"/>
</clipPath>
</defs>
</svg>
