<svg width="64" height="18" viewBox="0 0 64 18" fill="none" xmlns="http://www.w3.org/2000/svg">
<g clip-path="url(#clip0_101_3716)">
<path fill-rule="evenodd" clip-rule="evenodd" d="M56.0275 0.00488281H44.0703C44.7132 3.9906 48.5703 7.71917 52.8132 7.71917H62.3275C62.456 7.33345 62.456 6.81917 62.456 6.43345C62.456 2.83345 59.6275 0.00488281 56.0275 0.00488281Z" fill="url(#paint0_linear_101_3716)"/>
<path fill-rule="evenodd" clip-rule="evenodd" d="M45.0977 8.36203V18.0049H50.8834V12.862H56.0262C58.8548 12.862 61.2976 10.9335 62.0691 8.36203H45.0977ZM24.5262 0.00488281V18.0049H29.6691C29.6691 18.0049 30.9548 18.0049 31.5977 16.7192L36.0977 7.71917H36.7405V18.0049H42.5262V0.00488281H37.3834C37.3834 0.00488281 36.0977 0.133454 35.4548 1.2906L30.9548 10.2906H30.3119V0.00488281H24.5262ZM0.0976562 18.0049V0.00488281H5.88337C5.88337 0.00488281 7.5548 0.00488281 8.4548 2.57631C10.7691 9.3906 11.0262 10.2906 11.0262 10.2906C11.0262 10.2906 11.5405 8.61917 13.5977 2.57631C14.4977 0.00488281 16.1691 0.00488281 16.1691 0.00488281H21.9548V18.0049H16.1691V8.36203H15.5262L12.3119 18.0049H9.74051L6.52623 8.36203H5.88337V18.0049H0.0976562Z" fill="#31AF47"/>
</g>
<defs>
<linearGradient id="paint0_linear_101_3716" x1="44.0369" y1="3.86203" x2="62.456" y2="3.86203" gradientUnits="userSpaceOnUse">
<stop stop-color="#00B4E6"/>
<stop offset="1" stop-color="#088CCB"/>
</linearGradient>
<clipPath id="clip0_101_3716">
<rect width="63" height="18" fill="white" transform="translate(0.0976562 0.00488281)"/>
</clipPath>
</defs>
</svg>
