<svg width="80" height="40" viewBox="0 0 80 40" fill="none" xmlns="http://www.w3.org/2000/svg">
<g clip-path="url(#clip0_101_3744)">
<path d="M69.2928 11.4225V21.2019H65.8235V14.3419H62.483V21.2019H59.0137V11.4219H69.2928V11.4225Z" fill="white"/>
<path fill-rule="evenodd" clip-rule="evenodd" d="M51.8883 21.5516C54.994 21.5516 57.3002 19.6349 57.3002 16.7292C57.3002 13.9169 55.5987 12.0909 52.7549 12.0909C51.4425 12.0909 50.3596 12.5559 49.544 13.3582C49.7387 11.6999 51.1319 10.4892 52.6659 10.4892C53.0199 10.4892 55.6851 10.4836 55.6851 10.4836L57.1923 7.58057C57.1923 7.58057 53.8461 7.65723 52.2907 7.65723C48.7366 7.71957 46.3359 10.9712 46.3359 14.9206C46.3359 19.5216 48.6773 21.5516 51.8883 21.5516ZM51.9072 14.6622C53.0603 14.6622 53.8597 15.4249 53.8597 16.7289C53.8597 17.9026 53.1494 18.8696 51.9072 18.8722C50.7189 18.8722 49.9195 17.9762 49.9195 16.7489C49.9195 15.4446 50.7189 14.6622 51.9072 14.6622Z" fill="white"/>
<path d="M43.5109 17.9282C43.5109 17.9282 42.6916 18.4035 41.4679 18.4935C40.0611 18.5355 38.8076 17.6412 38.8076 16.0522C38.8076 14.5022 39.9137 13.6139 41.4325 13.6139C42.3637 13.6139 43.5957 14.2635 43.5957 14.2635C43.5957 14.2635 44.4971 12.5985 44.964 11.7659C44.109 11.1135 42.9701 10.7559 41.6454 10.7559C38.3023 10.7559 35.7129 12.9499 35.7129 16.0325C35.7129 19.1545 38.1466 21.2975 41.6454 21.2329C42.6234 21.1962 43.9725 20.8505 44.7948 20.3189L43.5109 17.9282Z" fill="white"/>
<path d="M0.851562 8.71143L5.66408 17.3698V22.6511L0.857192 31.2924L0.851562 8.71143Z" fill="#5B57A2"/>
<path d="M19.3301 14.2194L23.8396 11.4374L33.0685 11.4287L19.3301 19.9V14.2194Z" fill="#D90751"/>
<path d="M19.3041 8.66055L19.3296 20.1239L14.5059 17.1406V0.00488281L19.3041 8.66055Z" fill="#FAB718"/>
<path d="M33.0681 11.4285L23.8388 11.4372L19.3041 8.66055L14.5059 0.00488281L33.0681 11.4285Z" fill="#ED6F26"/>
<path d="M19.3296 31.3404V25.7787L14.5059 22.8521L14.5085 40.0047L19.3296 31.3404Z" fill="#63B22F"/>
<path d="M23.8279 28.5838L5.66375 17.3698L0.851562 8.71143L33.0486 28.5724L23.8279 28.5838Z" fill="#1487C9"/>
<path d="M14.5098 40.0051L19.3302 31.3408L23.8285 28.5841L33.0492 28.5728L14.5098 40.0051Z" fill="#017F36"/>
<path d="M0.857422 31.2927L14.5456 22.8527L9.94365 20.0107L5.66431 22.6514L0.857422 31.2927Z" fill="#984995"/>
<path d="M38.8098 27.7838C38.7039 27.9198 38.5644 28.0225 38.3972 28.0918C38.2256 28.1621 38.042 28.1979 37.8567 28.1972C37.6725 28.1997 37.4893 28.1687 37.3159 28.1058C37.1602 28.0489 37.0179 27.9602 36.898 27.8452C36.7796 27.73 36.6866 27.5909 36.6251 27.4372C36.5586 27.2687 36.5254 27.0888 36.5274 26.9075C36.5274 26.7275 36.5582 26.5608 36.6221 26.4028C36.6834 26.2445 36.7725 26.1088 36.8841 25.9948C36.9957 25.8785 37.1295 25.7898 37.2798 25.7205C37.4332 25.6538 37.6004 25.6178 37.7842 25.6178C37.9822 25.6178 38.166 25.6428 38.3333 25.6925C38.5005 25.7425 38.6426 25.8258 38.7595 25.9425L38.5562 26.2892C38.4578 26.1994 38.342 26.1313 38.2161 26.0892C38.0963 26.0503 37.9713 26.0308 37.8455 26.0312C37.7342 26.0312 37.6282 26.0532 37.5252 26.0948C37.4237 26.136 37.331 26.1963 37.252 26.2725C37.1713 26.3509 37.1077 26.4453 37.0652 26.5498C37.0179 26.6578 36.9957 26.7772 36.9957 26.9102C36.9957 27.0462 37.0205 27.1682 37.0679 27.2735C37.1156 27.3818 37.1795 27.4735 37.2603 27.5508C37.3411 27.6288 37.4358 27.6868 37.5444 27.7258C37.6534 27.7675 37.7677 27.7868 37.8902 27.7868C38.0405 27.7868 38.1773 27.7562 38.2942 27.6978C38.41 27.6415 38.5141 27.5634 38.6009 27.4678L38.8098 27.7838ZM39.3837 28.1388V25.6705H39.8242V27.5095L41.2565 25.6705H41.6969V28.1392H41.2565V26.3002L39.8242 28.1392L39.3837 28.1388ZM44.6145 27.7838C44.5062 27.921 44.364 28.0272 44.2022 28.0918C44.0305 28.1621 43.8468 28.1979 43.6614 28.1972C43.4773 28.1996 43.2942 28.1687 43.121 28.1058C42.9652 28.0489 42.8228 27.9602 42.7027 27.8452C42.5843 27.73 42.4913 27.5909 42.4298 27.4372C42.3633 27.2687 42.3301 27.0888 42.3321 26.9075C42.3321 26.7275 42.3629 26.5608 42.4268 26.4028C42.4884 26.2445 42.5775 26.1088 42.6888 25.9948C42.8004 25.8785 42.9342 25.7898 43.0845 25.7205C43.2434 25.6501 43.4154 25.6151 43.5889 25.6178C43.7869 25.6178 43.9707 25.6428 44.138 25.6925C44.3052 25.7425 44.4473 25.8258 44.5645 25.9425L44.3609 26.2892C44.2627 26.1994 44.1469 26.1313 44.0211 26.0892C43.9013 26.0504 43.7763 26.0308 43.6505 26.0312C43.4291 26.0319 43.2165 26.1183 43.0567 26.2725C42.9767 26.3515 42.9132 26.4458 42.8699 26.5498C42.8226 26.6578 42.8004 26.7772 42.8004 26.9102C42.8004 27.0462 42.8256 27.1682 42.8729 27.2735C42.9203 27.3818 42.9842 27.4735 43.065 27.5508C43.1458 27.6288 43.2408 27.6868 43.3495 27.7258C43.4581 27.7645 43.5723 27.7868 43.6949 27.7868C43.8456 27.7868 43.9794 27.7562 44.0989 27.6978C44.2147 27.6415 44.3188 27.5634 44.4056 27.4678L44.6145 27.7838ZM44.8404 25.6705H47.1003V26.1088H46.1919V28.1388H45.7514V26.1088H44.843V25.6705H44.8404Z" fill="white"/>
<path fill-rule="evenodd" clip-rule="evenodd" d="M49.1562 28.1143C49.3235 28.0616 49.4656 27.9809 49.5881 27.8703L49.4543 27.5263C49.3735 27.5986 49.2649 27.6596 49.1341 27.7096C49.0029 27.7596 48.8552 27.7843 48.6936 27.7843C48.4512 27.7843 48.2505 27.7206 48.0915 27.5903C47.9329 27.4596 47.8465 27.2769 47.8269 27.0436H49.7331C49.7527 26.9576 49.761 26.8606 49.761 26.7469C49.761 26.5776 49.7302 26.4253 49.6689 26.2866C49.6119 26.1519 49.5285 26.0302 49.4238 25.9286C49.3177 25.8279 49.1926 25.7497 49.0559 25.6986C48.9128 25.6427 48.7606 25.6144 48.6072 25.6153C48.4009 25.6153 48.2197 25.6513 48.0611 25.7179C47.9111 25.7814 47.7755 25.8749 47.6623 25.9926C47.5525 26.1097 47.4682 26.2485 47.4146 26.4003C47.3558 26.5618 47.3265 26.7328 47.3282 26.9049C47.3282 27.0993 47.3616 27.2766 47.4229 27.4349C47.4825 27.5883 47.5737 27.7272 47.6905 27.8426C47.8047 27.9559 47.9438 28.0423 48.1084 28.1033C48.2846 28.1662 48.4706 28.1971 48.6575 28.1946C48.8268 28.1935 48.995 28.1662 49.1562 28.1143ZM48.0415 26.2143C48.178 26.0896 48.3591 26.0286 48.5876 26.0286C48.8022 26.0286 48.9751 26.0869 49.1006 26.2036C49.2261 26.3199 49.2927 26.4809 49.3039 26.6859H47.7991C47.8204 26.5044 47.9066 26.3366 48.0415 26.2143Z" fill="white"/>
<path d="M50.3613 25.6704H50.7627L51.7158 26.8937L52.6186 25.6704H53.0087V28.1391H52.5686V26.3391L51.7102 27.4844H51.6933L50.8018 26.3387V28.1387H50.3613V25.6704Z" fill="white"/>
<path fill-rule="evenodd" clip-rule="evenodd" d="M54.2061 25.6789C54.0724 25.714 53.9447 25.769 53.8272 25.8422L53.9441 26.1922C54.0445 26.1422 54.1448 26.1005 54.2452 26.0645C54.3455 26.0282 54.4737 26.0115 54.627 26.0115C54.7495 26.0115 54.8472 26.0312 54.9224 26.0699C54.9976 26.1059 55.0532 26.1615 55.0923 26.2282C55.1314 26.2949 55.1565 26.3779 55.1704 26.4749C55.1843 26.5719 55.19 26.6772 55.19 26.7912C55.0999 26.728 54.9971 26.6853 54.8889 26.6662C54.7843 26.6453 54.678 26.6341 54.5714 26.6329C54.4402 26.6329 54.3177 26.6525 54.2004 26.6855C54.0835 26.7189 53.9832 26.7689 53.9024 26.8355C53.8199 26.9021 53.7533 26.9864 53.7073 27.0822C53.6583 27.1871 53.6335 27.3019 53.6348 27.4179C53.6348 27.6592 53.7047 27.8479 53.8438 27.9812C53.9832 28.1142 54.167 28.1805 54.3955 28.1805C54.6018 28.1805 54.7664 28.1445 54.8916 28.0725C55.0171 28.0002 55.1175 27.9172 55.19 27.8229V28.1419H55.6023V26.6275C55.6023 26.3055 55.5327 26.0562 55.3907 25.8812C55.2512 25.7065 55.0032 25.6179 54.6522 25.6179C54.4959 25.6179 54.3482 25.6399 54.2061 25.6789ZM54.9423 27.6789C54.8419 27.7509 54.7108 27.7839 54.5492 27.7839C54.4071 27.7839 54.2955 27.7479 54.2177 27.6785C54.1395 27.6065 54.1004 27.5122 54.1004 27.3955C54.1004 27.3265 54.1143 27.2682 54.1451 27.2155C54.1759 27.1629 54.2177 27.1212 54.265 27.0879C54.3168 27.053 54.3743 27.0276 54.4349 27.0129C54.4992 26.9962 54.5631 26.9879 54.63 26.9879C54.8476 26.9879 55.034 27.0405 55.1873 27.1515V27.4649C55.1151 27.5464 55.0327 27.6185 54.9423 27.6789ZM59.4902 24.8022C59.5793 24.7609 59.6627 24.6915 59.7409 24.5889L59.5011 24.2422C59.4398 24.3255 59.3703 24.3835 59.2921 24.4142C59.2093 24.4468 59.1234 24.4709 59.0358 24.4862L58.9524 24.5012C58.8798 24.5139 58.802 24.5279 58.7182 24.5419C58.5839 24.5669 58.4529 24.6078 58.3281 24.6639C58.1301 24.7499 57.9715 24.8662 57.8516 25.0132C57.7317 25.1602 57.637 25.3265 57.5727 25.5099C57.5076 25.6956 57.4638 25.8881 57.4419 26.0839C57.4194 26.2839 57.4085 26.4749 57.4085 26.6579C57.4085 26.8939 57.4389 27.1072 57.5002 27.2985C57.5618 27.4902 57.6479 27.6509 57.7622 27.7812C57.8764 27.9145 58.0132 28.0145 58.1748 28.0865C58.3364 28.1585 58.5175 28.1945 58.7209 28.1945C58.9077 28.1945 59.0805 28.1585 59.2365 28.0919C59.3869 28.0278 59.5233 27.9346 59.6379 27.8175C59.7492 27.7035 59.8386 27.5675 59.8998 27.4152C59.9638 27.2625 59.9945 27.0989 59.9945 26.9269C59.9945 26.7412 59.9667 26.5722 59.9137 26.4222C59.8649 26.2792 59.7871 26.148 59.6852 26.0369C59.5831 25.9276 59.4584 25.8423 59.32 25.7869C59.1674 25.7264 59.0047 25.6963 58.8408 25.6982C58.7348 25.6982 58.6318 25.7122 58.5315 25.7399C58.4338 25.7675 58.3401 25.8076 58.2526 25.8592C58.1677 25.9082 58.0899 25.9687 58.0215 26.0392C57.9546 26.1089 57.8989 26.1865 57.8598 26.2752H57.8486C57.8572 26.1615 57.8711 26.0452 57.8959 25.9259C57.9211 25.8065 57.9572 25.6925 58.0049 25.5845C58.0523 25.4765 58.1135 25.3792 58.1887 25.2905C58.2693 25.201 58.3681 25.1301 58.4785 25.0825C58.5998 25.0244 58.7282 24.9824 58.8603 24.9579L58.9477 24.9419C59.0348 24.9259 59.118 24.9105 59.1974 24.8939C59.3034 24.8719 59.4008 24.8435 59.4902 24.8022ZM57.9407 27.1739C57.8976 27.0338 57.8769 26.8878 57.8794 26.7412C57.8981 26.6571 57.9321 26.5772 57.9797 26.5055C58.0271 26.4305 58.0884 26.3642 58.1609 26.3055C58.3246 26.1765 58.5269 26.1071 58.7348 26.1089C58.9941 26.1089 59.1892 26.1892 59.3256 26.3475C59.4624 26.5082 59.5293 26.7079 59.5293 26.9492C59.5293 27.0685 59.5067 27.1769 59.468 27.2765C59.4303 27.3748 59.3734 27.4645 59.3007 27.5403C59.2279 27.616 59.1408 27.6763 59.0444 27.7175C58.9441 27.7619 58.8351 27.7842 58.7126 27.7842C58.5901 27.7842 58.4785 27.7592 58.3755 27.7092C58.2731 27.6602 58.1827 27.5892 58.1105 27.5012C58.035 27.4031 57.9775 27.2923 57.9407 27.1739ZM63.3721 25.6705H62.9317V28.1392H63.3721V25.6705ZM60.6297 25.6705H61.0702V26.4112H61.4772C61.6693 26.4112 61.8252 26.4362 61.9508 26.4832C62.0763 26.5305 62.1766 26.5942 62.2518 26.6719C62.327 26.7495 62.3799 26.8412 62.4107 26.9435C62.4412 27.0462 62.4581 27.1515 62.4581 27.2625C62.4581 27.3735 62.4412 27.4792 62.4051 27.5845C62.3717 27.6899 62.3131 27.7812 62.2349 27.8645C62.1571 27.9479 62.0511 28.0145 61.9173 28.0645C61.7835 28.1142 61.6219 28.1419 61.4269 28.1419H60.6271V25.6705H60.6297ZM61.0702 26.8242V27.7285H61.3908C61.611 27.7285 61.767 27.6899 61.856 27.6119C61.9455 27.5342 61.9898 27.4235 61.9898 27.2765C61.9898 27.1265 61.9425 27.0132 61.8534 26.9352C61.7613 26.8575 61.608 26.8185 61.3964 26.8185H61.0702V26.8242Z" fill="white"/>
<path d="M66.2844 27.7838C66.1785 27.9198 66.039 28.0225 65.8718 28.0918C65.7002 28.1621 65.5166 28.1979 65.3313 28.1972C65.1471 28.1997 64.9639 28.1687 64.7905 28.1058C64.6348 28.049 64.4925 27.9602 64.3726 27.8452C64.2542 27.7299 64.1611 27.5909 64.0994 27.4372C64.0331 27.2686 64.0001 27.0887 64.002 26.9075C64.002 26.7275 64.0325 26.5608 64.0968 26.4028C64.158 26.2445 64.2471 26.1088 64.3587 25.9948C64.4703 25.8785 64.6038 25.7898 64.7544 25.7205C64.9133 25.6501 65.0853 25.615 65.2588 25.6178C65.4565 25.6178 65.6407 25.6428 65.8079 25.6925C65.9751 25.7425 66.1172 25.8258 66.2341 25.9425L66.0308 26.2892C65.9324 26.1994 65.8166 26.1313 65.6907 26.0892C65.5709 26.0503 65.4459 26.0308 65.3201 26.0312C65.2088 26.0312 65.1028 26.0532 64.9995 26.0948C64.8981 26.136 64.8055 26.1963 64.7266 26.2725C64.6465 26.3514 64.583 26.4457 64.5399 26.5498C64.4925 26.6578 64.4703 26.7772 64.4703 26.9102C64.4703 27.0462 64.4951 27.1682 64.5425 27.2735C64.5899 27.3818 64.6541 27.4735 64.7349 27.5508C64.8157 27.6288 64.9104 27.6868 65.0191 27.7258C65.128 27.7645 65.2423 27.7868 65.3648 27.7868C65.5151 27.7868 65.6489 27.7562 65.7688 27.6978C65.8847 27.6415 65.9887 27.5635 66.0755 27.4678L66.2844 27.7838ZM66.51 25.6705H68.7702V26.1088H67.8615V28.1388H67.4213V26.1088H66.5129V25.6705H66.51Z" fill="white"/>
<path fill-rule="evenodd" clip-rule="evenodd" d="M69.6905 25.6706H69.25V29.2373H69.6905V28.0253C69.7795 28.0836 69.8855 28.1253 70.008 28.1529C70.1306 28.1806 70.2587 28.1943 70.3899 28.1943C70.5849 28.1943 70.7605 28.1583 70.9194 28.0919C71.0719 28.0263 71.21 27.9312 71.3261 27.8119C71.4403 27.6923 71.5268 27.5536 71.588 27.3899C71.6493 27.2266 71.6801 27.0516 71.6801 26.8659C71.6801 26.6826 71.6523 26.5136 71.5993 26.3609C71.5494 26.2159 71.4718 26.0822 71.3708 25.9673C71.2717 25.8552 71.1488 25.767 71.0111 25.7093C70.8607 25.6442 70.6983 25.612 70.5346 25.6149C70.3621 25.6149 70.2005 25.6483 70.0471 25.7149C69.8938 25.7816 69.7739 25.8616 69.6905 25.9616V25.6706ZM69.9971 26.1283C70.1226 26.0616 70.2591 26.0283 70.4068 26.0283C70.5349 26.0283 70.6492 26.0476 70.7525 26.0893C70.8528 26.1309 70.9363 26.1893 71.0062 26.2669C71.0757 26.3446 71.1287 26.4336 71.1622 26.5386C71.1983 26.6439 71.2151 26.7579 71.2151 26.8826C71.2151 27.0159 71.1926 27.1349 71.1539 27.2459C71.1174 27.3512 71.0594 27.4476 70.9837 27.5289C70.9076 27.6093 70.8155 27.6726 70.7134 27.7146C70.5996 27.7626 70.4771 27.7862 70.3538 27.7839C70.2342 27.7839 70.1226 27.7703 70.0167 27.7426C69.9006 27.7108 69.7906 27.6602 69.6908 27.5926V26.3693C69.7686 26.2753 69.8719 26.1949 69.9971 26.1283ZM75.0577 25.6703H74.6172V28.1389H75.0577V25.6703ZM72.3126 25.6703H72.7531V26.4109H73.1598C73.3522 26.4109 73.5081 26.4359 73.6337 26.4829C73.7592 26.5303 73.8595 26.5939 73.9347 26.6716C74.0099 26.7493 74.0629 26.8409 74.0933 26.9433C74.1241 27.0459 74.1407 27.1513 74.1407 27.2623C74.1407 27.3733 74.1241 27.4789 74.088 27.5843C74.0546 27.6896 73.996 27.7809 73.9178 27.8643C73.84 27.9476 73.734 28.0143 73.6002 28.0643C73.4664 28.1139 73.3048 28.1416 73.1098 28.1416H72.31V25.6703H72.3126ZM72.7561 26.8239V27.7283H73.0766C73.2965 27.7283 73.4528 27.6896 73.5419 27.6116C73.631 27.5339 73.6757 27.4233 73.6757 27.2763C73.6757 27.1263 73.6284 27.0129 73.5393 26.9349C73.4472 26.8573 73.2939 26.8183 73.0823 26.8183H72.7561V26.8239Z" fill="white"/>
<path d="M77.1693 26.8604L78.1111 28.1391H77.5707L76.8431 27.1404L76.1046 28.1391H75.5919L76.5282 26.8824L75.6476 25.6704H76.1884L76.86 26.6024L77.5425 25.6704H78.0555L77.1693 26.8604ZM38.4834 31.1901H37.1319V33.2481H36.6914V30.7797H38.9235V33.2481H38.4834V31.1901ZM41.4231 31.2177H40.5538L40.5257 31.6337C40.4952 31.9861 40.4535 32.2691 40.3948 32.4851C40.3362 32.7017 40.2637 32.8681 40.1803 32.9844C40.0968 33.1011 39.9991 33.1814 39.8875 33.2204C39.7724 33.2624 39.6506 33.2831 39.5282 33.2814L39.4947 32.8541C39.5421 32.8567 39.5977 32.8457 39.659 32.8181C39.7206 32.7904 39.7819 32.7294 39.8401 32.6381C39.8988 32.5434 39.9517 32.4104 39.9991 32.2384C40.0465 32.0637 40.0773 31.8364 40.0938 31.5504L40.1385 30.7821H41.8636V33.2507H41.4231V31.2177Z" fill="white"/>
<path fill-rule="evenodd" clip-rule="evenodd" d="M43.0518 30.7856C42.9094 30.8243 42.7812 30.8796 42.6726 30.9489L42.7898 31.2986C42.8902 31.2486 42.9905 31.2069 43.0905 31.1709C43.1909 31.1349 43.3194 31.1183 43.4724 31.1183C43.5952 31.1183 43.6926 31.1376 43.7678 31.1763C43.8433 31.2126 43.8989 31.2679 43.938 31.3346C43.9767 31.4013 44.0019 31.4846 44.0158 31.5813C44.0297 31.6786 44.0354 31.7839 44.0354 31.8976C43.9452 31.8345 43.8425 31.7919 43.7343 31.7729C43.6297 31.752 43.5234 31.7408 43.4167 31.7396C43.2859 31.7396 43.1631 31.7589 43.0462 31.7923C42.9289 31.8256 42.8286 31.8756 42.7478 31.9423C42.6653 32.0088 42.5987 32.0931 42.5527 32.1889C42.5037 32.2939 42.4791 32.4087 42.4805 32.5246C42.4805 32.7656 42.5501 32.9546 42.6895 33.0876C42.8286 33.2206 43.0127 33.2873 43.2412 33.2873C43.4475 33.2873 43.6118 33.2513 43.7373 33.1789C43.8625 33.1069 43.9628 33.0236 44.0354 32.9293V33.2483H44.448V31.7339C44.448 31.4123 44.3781 31.1626 44.236 30.9879C44.0966 30.8129 43.8486 30.7246 43.4975 30.7246C43.3469 30.7247 43.197 30.7455 43.0518 30.7856ZM43.7903 32.7849C43.6903 32.8573 43.5591 32.8906 43.3975 32.8906C43.2525 32.8906 43.1439 32.8546 43.066 32.7849C42.9879 32.7129 42.9488 32.6186 42.9488 32.5023C42.9488 32.4329 42.9627 32.3746 42.9935 32.3219C43.024 32.2693 43.066 32.2276 43.1134 32.1943C43.1607 32.1609 43.219 32.1359 43.2833 32.1193C43.347 32.1027 43.4125 32.0944 43.4783 32.0946C43.6956 32.0946 43.8824 32.1473 44.0357 32.2579V32.5713C43.9633 32.6528 43.8808 32.7246 43.7903 32.7849Z" fill="white"/>
<path d="M44.8789 30.7798H47.1391V31.2178H46.2304V33.2481H45.7903V31.2181H44.8819V30.7798H44.8789Z" fill="white"/>
<path fill-rule="evenodd" clip-rule="evenodd" d="M49.1956 33.2229C49.3629 33.1702 49.5049 33.0896 49.6275 32.9789L49.4937 32.6349C49.4129 32.7072 49.3042 32.7682 49.1731 32.8182C49.0423 32.8682 48.8946 32.8929 48.733 32.8929C48.4906 32.8929 48.2899 32.8292 48.1309 32.6989C47.972 32.5686 47.8859 32.3856 47.8663 32.1522H49.7725C49.7917 32.0666 49.8003 31.9692 49.8003 31.8556C49.8003 31.6866 49.7695 31.5339 49.7083 31.3952C49.6512 31.2606 49.5677 31.139 49.4629 31.0376C49.3569 30.9367 49.2319 30.8584 49.0953 30.8072C48.9522 30.7514 48.8 30.7231 48.6465 30.7239C48.4402 30.7239 48.2591 30.7599 48.1005 30.8266C47.9504 30.8899 47.8147 30.9834 47.7017 31.1012C47.5919 31.2184 47.5075 31.3572 47.4537 31.5089C47.395 31.6705 47.3657 31.8415 47.3672 32.0136C47.3672 32.2079 47.4007 32.3852 47.462 32.5436C47.5236 32.7016 47.6153 32.8376 47.7295 32.9512C47.8438 33.0649 47.9832 33.1509 48.1478 33.2119C48.3239 33.2749 48.5097 33.306 48.6966 33.3036C48.8611 33.3036 49.0284 33.2756 49.1956 33.2229ZM48.0783 31.3202C48.2147 31.1956 48.3959 31.1346 48.6244 31.1346C48.8419 31.1346 49.0118 31.1956 49.1373 31.3092C49.2625 31.4259 49.3294 31.5866 49.3407 31.7919H47.8359C47.8571 31.6103 47.9433 31.4426 48.0783 31.3202ZM50.0149 30.7796H50.5723L51.4221 31.9696L50.5137 33.2479H49.9732L50.926 31.9692L50.0149 30.7796ZM51.5307 30.7796H51.9711V33.2479H51.5307V30.7796ZM53.5455 33.2479L52.5758 31.9692L53.4816 30.7792H52.9352L52.0798 31.9692L52.9994 33.2479H53.5455ZM55.5577 33.2229C55.7249 33.1702 55.867 33.0896 55.9895 32.9789L55.8557 32.6349C55.7749 32.7072 55.6663 32.7682 55.5355 32.8182C55.4043 32.8682 55.2566 32.8929 55.095 32.8929C54.8526 32.8929 54.6519 32.8292 54.493 32.6989C54.3343 32.5686 54.2479 32.3856 54.2284 32.1522H56.1346C56.1541 32.0666 56.1624 31.9692 56.1624 31.8556C56.1624 31.6866 56.1319 31.5339 56.0703 31.3952C56.0133 31.2607 55.9299 31.1391 55.8253 31.0376C55.7192 30.9367 55.5941 30.8584 55.4573 30.8072C55.3143 30.7514 55.162 30.7231 55.0086 30.7239C54.8026 30.7239 54.6215 30.7599 54.4625 30.8266C54.3126 30.89 54.177 30.9835 54.0641 31.1012C53.9541 31.2182 53.8696 31.3571 53.8161 31.5089C53.7572 31.6705 53.7279 31.8415 53.7296 32.0136C53.7296 32.2079 53.7631 32.3852 53.8243 32.5436C53.8856 32.7016 53.9777 32.8376 54.0919 32.9512C54.2062 33.0649 54.3453 33.1509 54.5099 33.2119C54.6861 33.2749 54.872 33.306 55.0589 33.3036C55.2283 33.3023 55.3965 33.2751 55.5577 33.2229ZM54.4403 31.3202C54.5771 31.1956 54.7582 31.1346 54.9867 31.1346C55.2013 31.1346 55.3739 31.1956 55.4994 31.3092C55.6249 31.4259 55.6918 31.5866 55.7027 31.7919H54.1979C54.2191 31.6103 54.3053 31.4426 54.4403 31.3202ZM57.949 29.9502C57.6897 29.9502 57.5477 29.8059 57.5255 29.5176H57.1102C57.1102 29.6282 57.1297 29.7282 57.1658 29.8226C57.2022 29.9169 57.2552 29.9972 57.3248 30.0639C57.3943 30.1306 57.4837 30.1832 57.5867 30.2246C57.6897 30.2662 57.8096 30.2856 57.946 30.2856C58.0716 30.2856 58.1832 30.2662 58.2835 30.2246C58.3839 30.1859 58.4673 30.1306 58.5398 30.0639C58.6094 29.9972 58.6653 29.9169 58.7041 29.8226C58.7432 29.7282 58.7627 29.6282 58.7627 29.5176H58.3504C58.3309 29.8059 58.1941 29.9502 57.949 29.9502ZM56.7588 30.7792V33.2479H57.1993L58.6316 31.4089V33.2479H59.072V30.7792H58.6316L57.1993 32.6182V30.7792H56.7588Z" fill="white"/>
</g>
<defs>
<clipPath id="clip0_101_3744">
<rect width="79.1489" height="40" fill="white" transform="translate(0.851562 0.00488281)"/>
</clipPath>
</defs>
</svg>
