<svg width="60" height="20" viewBox="0 0 60 20" fill="none" xmlns="http://www.w3.org/2000/svg">
<g clip-path="url(#clip0_101_3705)">
<path d="M24.0245 1.07666L20.9763 18.9708H25.8528L28.9045 1.07666H24.0257H24.0245ZM16.8869 1.09666L12.1104 13.3002L11.601 11.4578C10.6598 9.23784 7.98453 6.04842 4.8457 4.03901L9.21276 18.9625L14.3728 18.9531L22.0539 1.09313L16.8869 1.09666Z" fill="#3493E3"/>
<path d="M9.74824 2.37845C9.46588 1.28787 8.64353 0.963161 7.62353 0.924337H0.0623529L0 1.28081C5.88353 2.70787 9.77647 6.14787 11.3929 10.2832L9.74824 2.37845ZM38.7882 4.50787C40.0391 4.48006 41.282 4.71325 42.4376 5.19257L42.8776 5.39963L43.5376 1.52198C42.5729 1.15845 41.0588 0.769043 39.1694 0.769043C34.3506 0.769043 30.9529 3.19728 30.9271 6.67492C30.8953 9.24551 33.3471 10.6808 35.1976 11.5373C37.0988 12.4149 37.7353 12.9726 37.7271 13.7573C37.7118 14.9549 36.2118 15.5043 34.8094 15.5043C32.8565 15.5043 31.82 15.2349 30.2188 14.5679L29.5894 14.282L28.9035 18.2867C30.0447 18.7879 32.1506 19.2173 34.3377 19.2396C39.4635 19.2396 42.7965 16.842 42.8306 13.1255C42.8518 11.0926 41.5518 9.54081 38.7329 8.26669C37.0271 7.43728 35.9835 6.88551 35.9929 6.04669C35.9929 5.30316 36.8788 4.50787 38.7882 4.50787ZM56.0541 1.09728H52.2859C51.1153 1.09728 50.2447 1.4161 49.7306 2.58316L42.4894 18.982H47.6106C47.6106 18.982 48.4459 16.7773 48.6353 16.2937L54.8812 16.3008C55.0259 16.9255 55.4753 18.982 55.4753 18.982H60L56.0541 1.09728ZM50.0388 12.6314C50.44 11.6043 51.9824 7.63022 51.9824 7.63022C51.9553 7.67963 52.38 6.59492 52.6318 5.92198L52.9612 7.46434L54.0906 12.6314H50.0388Z" fill="#3493E3"/>
</g>
<defs>
<clipPath id="clip0_101_3705">
<rect width="60" height="20" fill="white" transform="translate(0 0.00488281)"/>
</clipPath>
</defs>
</svg>
